<svg width="69" height="45" fill="none" xmlns="http://www.w3.org/2000/svg">
<path d="M19.8631 23.0832C16.4706 23.0832 13.7063 25.4906 13.7063 28.448C13.7063 31.4062 16.4656 33.8145 19.8631 33.8145C23.2605 33.8145 26.0199 31.4079 26.0199 28.448C26.0199 25.4881 23.2588 23.0832 19.8631 23.0832ZM19.8631 23.9716C22.4968 23.9716 24.6838 25.6246 25.0665 27.7767C24.8727 30.0918 22.6133 31.9253 19.8631 31.9253C17.1137 31.9253 14.8468 30.0918 14.6596 27.7767C15.0498 25.6246 17.2293 23.9716 19.8631 23.9716ZM19.8631 32.9269C17.4439 32.9269 15.4008 31.5285 14.7894 29.6343C15.7153 31.2531 17.6419 32.367 19.8631 32.367C22.0842 32.367 24.0108 31.2506 24.9367 29.6343C24.3253 31.5285 22.2822 32.9269 19.8631 32.9269ZM48.5415 23.0832C45.1491 23.0832 42.3856 25.4906 42.3856 28.448C42.3856 31.4062 45.1441 33.8145 48.5415 33.8145C51.9398 33.8145 54.6983 31.4079 54.6983 28.448C54.6983 25.4881 51.9323 23.0832 48.5415 23.0832ZM48.5415 23.9716C51.1753 23.9716 53.3623 25.6246 53.745 27.7767C53.5511 30.0918 51.2917 31.9253 48.5415 31.9253C45.7921 31.9253 43.5252 30.0918 43.3381 27.7767C43.7216 25.6246 45.9078 23.9716 48.5415 23.9716ZM48.5415 32.9269C46.1224 32.9269 44.0793 31.5285 43.4687 29.6343C44.3937 31.2531 46.3212 32.367 48.5415 32.367C50.7627 32.367 52.6876 31.2506 53.6152 29.6343C53.0021 31.5285 50.9615 32.9269 48.5415 32.9269ZM68.9885 3.53133C68.9885 3.51303 68.9885 3.49473 68.9885 3.47643V3.29425C68.9926 3.19858 68.9677 3.11123 68.9136 3.03303C68.3413 0.140563 65.8489 0.327738 65.8215 0.330234C65.7591 0.335225 65.7025 0.35519 65.6509 0.391793C65.5994 0.427564 65.5603 0.473318 65.5345 0.529887L64.7816 2.10132C64.3765 1.77356 63.9298 1.52066 63.4398 1.34181C62.9506 1.16378 62.4457 1.06895 61.9249 1.05813H6.65353C6.2326 1.06978 5.82497 1.15047 5.43066 1.30188C5.03718 1.45328 4.6803 1.66624 4.36002 1.93993L3.5456 0.238726C3.51898 0.182158 3.47905 0.135572 3.42748 0.0998013C3.3759 0.0631983 3.31933 0.0424011 3.25611 0.035746C3.22866 0.035746 0.609045 -0.162243 0.127383 2.96898C0.0400346 3.05965 -0.00239172 3.16863 0.00010399 3.29425L0.889391 28.4638C0.891055 28.5087 0.899373 28.552 0.914347 28.5936L5.64861 42.3189C5.68272 42.4154 5.74262 42.4911 5.8283 42.5468C6.01048 42.9894 6.28085 43.3687 6.64022 43.6857C7.28743 44.2505 8.16341 44.535 9.25318 44.535C9.51772 44.5342 9.78143 44.5184 10.0443 44.4868C10.0892 44.4818 10.1317 44.4693 10.1716 44.4485C10.2115 44.4277 10.2456 44.4003 10.2756 44.3661C10.3047 44.332 10.3271 44.2938 10.3421 44.2513C10.3563 44.2089 10.3629 44.1648 10.3613 44.1199L10.2015 40.4771H24.8294C24.9134 40.4771 24.9908 40.4554 25.0624 40.4114C25.1339 40.3681 25.1888 40.3082 25.2262 40.2333L29.0479 32.5966H39.5031C39.5289 32.5991 39.5546 32.5991 39.5804 32.5966L43.4046 40.2383C43.4437 40.3124 43.4986 40.3714 43.5702 40.4147C43.6417 40.4588 43.7199 40.4812 43.8031 40.4821H58.8869L58.7188 44.4211C58.7163 44.466 58.723 44.5092 58.7371 44.5517C58.7521 44.5949 58.7737 44.6332 58.8028 44.6673C58.832 44.7014 58.8669 44.7289 58.9068 44.7505C58.9459 44.7713 58.9883 44.7846 59.0333 44.7896C59.2961 44.8187 59.5599 44.8345 59.8244 44.8353C60.9142 44.8353 61.7926 44.5508 62.4374 43.9885C62.741 43.7131 62.9847 43.3928 63.1686 43.0268C63.3516 42.6608 63.4622 42.274 63.5005 41.8663L68.0609 28.6077C68.0759 28.5653 68.0842 28.522 68.0859 28.4779L68.961 3.67941C68.9818 3.63199 68.991 3.58291 68.9885 3.53133ZM6.67017 1.93744H61.9332C62.3883 1.94742 62.8267 2.03726 63.2484 2.20863C63.6694 2.37917 64.0471 2.61875 64.3806 2.92822L63.7509 4.24842H5.47309L4.75933 2.76849C5.01305 2.51477 5.30504 2.31678 5.6353 2.17453C5.96556 2.03227 6.3108 1.95657 6.67017 1.94659V1.93744ZM60.128 11.8901L59.9958 14.9365H59.2038C59.2096 12.3751 59.0574 9.82372 58.7479 7.28148C58.7413 7.23406 58.7205 7.1933 58.688 7.15836C58.6548 7.12425 58.6148 7.10179 58.5682 7.09264C46.2846 4.96384 37.3618 7.07683 37.2794 7.09264C37.1962 7.11427 37.1422 7.16668 37.1181 7.24987C36.9442 7.97527 36.8252 8.70983 36.7595 9.45353H32.3929C32.279 8.10837 32.165 7.28564 32.165 7.27649C32.1575 7.22907 32.1375 7.18831 32.1043 7.15337C32.0702 7.11843 32.0302 7.0968 31.9828 7.08765C19.7017 4.95885 10.7764 7.06935 10.694 7.08765C10.6108 7.10928 10.5567 7.16169 10.5326 7.24487C10.5052 7.34553 9.86878 9.71558 9.97609 14.9273H9.09346L8.95037 11.5898C8.94788 11.5416 8.93623 11.4958 8.91543 11.4526L5.8075 4.96551H63.4115L60.1621 11.7537C60.1422 11.797 60.1314 11.8427 60.128 11.8901ZM47.0641 9.65651C47.0225 9.59495 46.9693 9.54754 46.9035 9.5126C46.8386 9.47766 46.7688 9.45936 46.6947 9.45853H37.1979C37.2628 8.79967 37.366 8.14664 37.5057 7.50026C38.6454 7.24987 47.0233 5.57361 58.3195 7.50026C58.6098 9.9693 58.7571 12.4475 58.7596 14.934H45.9535V12.8052L47.094 10.0733C47.1556 9.92937 47.1456 9.79045 47.0641 9.65651ZM21.5252 10.075L22.6657 12.8077V14.939H10.4211C10.3271 10.4535 10.8013 8.05763 10.9294 7.50193C12.0691 7.25153 20.447 5.57611 31.7457 7.50193C31.7823 7.79808 31.8639 8.48855 31.9462 9.45853H21.9386C21.902 9.45936 21.8662 9.46518 21.8313 9.47433C21.7964 9.48431 21.7631 9.49846 21.7315 9.51593C21.6999 9.53339 21.6707 9.55419 21.6441 9.57915C21.6175 9.60411 21.5942 9.63156 21.5743 9.66151C21.5543 9.69145 21.5376 9.7239 21.5252 9.758C21.5127 9.79128 21.5052 9.82705 21.501 9.86282C21.4969 9.89859 21.4969 9.93436 21.5019 9.97097C21.506 10.0067 21.5152 10.0417 21.5277 10.075H21.5252ZM2.99656 0.739522L3.8559 2.54056C3.84092 2.61792 3.84592 2.69362 3.87004 2.76766C3.895 2.84253 3.93576 2.90659 3.99316 2.95983C4.02061 2.98395 4.05139 3.00392 4.08384 3.02139L8.24327 11.703L8.38219 14.9365H5.92896C5.86906 14.9382 5.8125 14.9506 5.75759 14.9748C5.70352 14.9981 5.65527 15.0313 5.61367 15.0738C5.57208 15.1162 5.54047 15.1653 5.51801 15.2202C5.49555 15.2751 5.4839 15.3325 5.4839 15.3915V21.0159C5.48806 21.1158 5.5205 21.2048 5.58289 21.283C5.64529 21.3612 5.72515 21.4136 5.82165 21.4394C6.80327 21.7172 7.73831 22.1074 8.62594 22.6098L9.06434 32.674C8.19252 33.0567 7.27994 33.2388 6.32743 33.2205C6.20182 33.2155 6.09201 33.2555 5.99967 33.3412C5.9847 33.3545 5.97139 33.3703 5.96057 33.3869L5.09874 12.3319C5.09624 12.2828 5.08543 12.237 5.06463 12.1929L0.89355 3.39657V3.26513C0.891887 3.19525 0.873585 3.12953 0.839478 3.0688C1.15393 1.05148 2.49244 0.776125 2.99822 0.746177L2.99656 0.739522ZM9.93033 32.1615L9.54101 23.1747C11.4968 24.5747 12.352 26.3076 12.0833 28.3299C11.8229 30.3039 10.9452 31.4744 9.93283 32.1773L9.93033 32.1615ZM0.957605 5.19095L4.39163 12.4317L5.47309 39.0953L1.77618 28.3656L0.957605 5.19095ZM9.63668 43.8088C8.54608 43.877 7.69838 43.6582 7.12854 43.1549C6.85485 42.9162 6.64771 42.6292 6.50795 42.2939C6.53457 42.2066 6.53457 42.1184 6.50795 42.0302L6.30248 41.4354L6.26421 40.4638H9.51106L9.63668 43.8088ZM29.493 31.7015L29.8207 31.046C29.8349 31.021 29.8457 30.9944 29.8532 30.9661L29.864 30.9254H38.7577L38.7827 30.9894C38.7885 31.0085 38.796 31.0277 38.8051 31.046L39.1337 31.7015H29.493ZM30.2883 30.0377C30.4754 29.7233 30.7009 29.4396 30.9638 29.1851C31.2275 28.9313 31.5186 28.7167 31.8397 28.5403C32.1608 28.3648 32.4986 28.2334 32.8546 28.1485C33.2107 28.0628 33.5709 28.0254 33.9369 28.0362C35.5059 27.9971 36.792 28.473 37.7586 29.4587C37.9341 29.6393 38.0955 29.8323 38.2419 30.0377H30.2883ZM39.617 30.67C39.4706 30.2881 38.1122 27.0404 33.9394 27.1478C30.8856 27.1478 29.5928 29.3107 29.1685 30.274C29.1577 30.2956 29.1477 30.3172 29.1394 30.3405C29.0729 30.4994 29.0296 30.6176 29.0113 30.6816L24.5541 39.5803H6.74504V34.0948C7.75828 34.0391 8.72243 33.7945 9.63834 33.3595C9.6999 33.3453 9.75564 33.3187 9.80472 33.2796C11.2281 32.5351 12.619 31.1283 12.975 28.4638C13.401 25.276 11.3487 23.2271 9.36964 22.025C9.32472 21.9826 9.27314 21.951 9.21491 21.931C8.31814 21.4077 7.37478 20.9876 6.38483 20.6724V15.825H23.1357C23.1956 15.825 23.2538 15.8133 23.3096 15.79C23.3661 15.7667 23.4152 15.7343 23.4576 15.691C23.5009 15.6486 23.5333 15.5995 23.5566 15.5438C23.5799 15.488 23.5916 15.4298 23.5916 15.3691V12.7162C23.5916 12.6563 23.5799 12.5989 23.5575 12.5432L22.6316 10.3461H46.0242L45.0983 12.5432C45.0759 12.5989 45.0642 12.6563 45.0642 12.7162V15.3807C45.0642 15.4406 45.0759 15.4989 45.0992 15.5546C45.1225 15.6103 45.1549 15.6602 45.1982 15.7027C45.2406 15.7451 45.2897 15.7784 45.3462 15.8017C45.402 15.8241 45.4602 15.8358 45.5201 15.8358H60.0116C60.0399 15.8957 60.0815 15.9431 60.1364 15.9789C60.1913 16.0146 60.2512 16.0338 60.3169 16.0363C60.3884 16.0404 60.4541 16.0246 60.5157 15.988C60.5764 15.9514 60.6222 15.9007 60.6521 15.8358H62.251V20.6724C61.4042 20.9427 60.5897 21.2896 59.8086 21.713C59.7379 21.7305 59.6763 21.7638 59.6239 21.8129C57.5442 22.9875 55.2066 25.083 55.6583 28.4638C56.0435 31.3538 57.6465 32.7655 59.188 33.4526C59.2429 33.4934 59.3036 33.5192 59.371 33.53C60.1755 33.8578 61.0115 34.0458 61.8792 34.0948V39.5803H44.0768L39.617 30.67ZM56.5501 28.3457C56.2672 26.2327 57.2114 24.4358 59.3569 23.0058L59.4575 22.9401L59.0466 32.4053C57.9185 31.7381 56.8396 30.531 56.5501 28.3457ZM61.9657 43.4444C61.3817 43.9494 60.5382 44.1682 59.4459 44.0999L59.6031 40.4563H62.3392C62.3983 40.4554 62.454 40.443 62.5081 40.4197C62.5621 40.3972 62.6096 40.3648 62.6511 40.3232C62.6919 40.2824 62.7244 40.235 62.7476 40.1809C62.7701 40.1269 62.7826 40.0711 62.7842 40.0129V33.6373C62.7842 33.5766 62.7726 33.5175 62.7485 33.4618C62.7244 33.406 62.6902 33.357 62.6462 33.3145C62.6021 33.2729 62.5513 33.2413 62.4939 33.2205C62.4365 33.1989 62.3775 33.1898 62.3167 33.1931C61.4932 33.2139 60.6945 33.0816 59.9226 32.7946L60.3784 22.3844C61.1571 21.9859 61.9682 21.6706 62.8117 21.4394C62.909 21.4127 62.9889 21.3595 63.0505 21.2796C63.1128 21.2006 63.1445 21.1099 63.147 21.0093V15.3807C63.147 15.3208 63.1353 15.2643 63.1128 15.2085C63.0904 15.1536 63.0588 15.1054 63.0172 15.0621C62.9756 15.0197 62.9273 14.9864 62.8733 14.9631C62.8184 14.939 62.7618 14.9265 62.7019 14.9249H60.7095L60.8368 11.9808L66.081 1.02403C66.5602 1.04732 67.7756 1.28607 68.1815 3.01224C68.1308 3.08461 68.1033 3.1653 68.0992 3.25348L68.0767 3.90901L64.0129 12.4841C63.993 12.5274 63.9813 12.5731 63.9788 12.6205L62.8209 41.0827L62.4972 42.0186C62.4698 42.1026 62.4673 42.1866 62.4889 42.2715C62.5106 42.3571 62.5538 42.4295 62.6179 42.4902C62.4789 42.8621 62.261 43.1799 61.9632 43.4444H61.9657ZM63.6186 38.7443L64.6793 12.7145L68.001 5.70588L67.2007 28.3573L63.6186 38.7443Z" fill="url(#paint0_linear_18430_2235)"/>
<defs>
<linearGradient id="paint0_linear_18430_2235" x1="0" y1="22.4243" x2="69.0001" y2="22.4243" gradientUnits="userSpaceOnUse">
<stop stop-color="#0CBAF1"/>
<stop offset="1" stop-color="#E95CE9"/>
</linearGradient>
</defs>
</svg>
