<svg width="64" height="60" viewBox="0 0 64 60" fill="none" xmlns="http://www.w3.org/2000/svg">
<path d="M57.6019 40.8277C57.6019 40.8277 57.618 40.8277 57.6226 40.8277C57.6326 40.8208 57.6418 40.8131 57.651 40.8047C57.6624 40.7963 57.6732 40.7871 57.6831 40.7764C57.6985 40.7626 57.7115 40.7472 57.7222 40.7304L57.746 40.6982C57.7567 40.6783 57.7659 40.6568 57.7735 40.6354C57.7781 40.6262 57.782 40.6155 57.785 40.6055C57.7942 40.5726 57.7988 40.5396 57.7988 40.5059V12.1152C57.7981 12.0401 57.7766 11.9704 57.7345 11.9076C57.6923 11.8448 57.6372 11.798 57.5674 11.7682L32.2398 0.234436C32.2084 0.174676 32.1648 0.125642 32.1073 0.088866C32.0138 0.0275735 31.9127 0.0122504 31.8039 0.0428967C31.7618 0.0306382 31.7189 0.026041 31.6752 0.0291058C31.6315 0.0321703 31.5894 0.0421305 31.5495 0.0597521C31.5097 0.0773735 31.4737 0.101124 31.4415 0.131005C31.4093 0.160885 31.384 0.195362 31.3641 0.234436L6.03424 11.7682C5.96452 11.798 5.90859 11.8448 5.86645 11.9076C5.82431 11.9704 5.80286 12.0401 5.80209 12.1152V40.4967C5.80209 40.5304 5.80669 40.5634 5.81665 40.5963C5.81665 40.6078 5.81665 40.6147 5.82814 40.6262C5.83963 40.6377 5.84423 40.6676 5.85572 40.689L5.87871 40.7212C5.89097 40.7373 5.90399 40.7534 5.91855 40.7672L5.95073 40.7955C5.95915 40.8032 5.96911 40.8116 5.97831 40.8185H5.99899L6.01815 40.8323L31.5357 53.1735C31.5878 53.1996 31.6438 53.2118 31.702 53.2111C31.7602 53.2111 31.8146 53.1988 31.8667 53.1735L57.5835 40.8323L57.6019 40.8277ZM49.3841 43.9283L41.4812 40.1634L48.3184 36.9027C48.3582 36.8843 48.3866 36.8552 48.4042 36.8146L56.5132 40.5059L49.3841 43.9283ZM40.1772 48.3483L32.2444 44.5673L41.0483 40.3741L48.9512 44.1413L40.1772 48.3483ZM14.6274 44.1551L22.5625 40.3741L31.3664 44.5673L23.3662 48.3782L14.6274 44.1551ZM7.08387 40.5082L15.1929 36.8146C15.2097 36.8552 15.2381 36.8851 15.2779 36.9027L22.1151 40.1634L14.1869 43.9421L7.08387 40.5082ZM24.5944 32.5356L31.3572 35.7588L22.5533 39.9527L15.5982 36.6322L24.5944 32.5356ZM25.0579 32.3295L31.8108 29.2572L38.5622 32.3295L31.8085 35.5481L25.0579 32.3295ZM39.0165 32.5356L48.015 36.6322L41.0483 39.9527L32.2444 35.7588L39.0165 32.5356ZM23.0046 40.1634L31.8085 35.9695L40.6124 40.1634L31.8085 44.3543L23.0046 40.1634ZM57.0342 21.0279L56.6266 20.8425C56.6036 20.8318 56.5791 20.8264 56.5538 20.8257C56.5285 20.8249 56.504 20.8287 56.4803 20.8371C56.4565 20.8463 56.4358 20.8594 56.4174 20.877C56.3991 20.8946 56.3845 20.9145 56.3738 20.9375C56.3531 20.9858 56.3516 21.034 56.3699 21.0831C56.3883 21.1321 56.4213 21.1681 56.4688 21.1896L57.0342 21.447V31.2998L56.6266 31.1144C56.6036 31.1036 56.5791 31.0983 56.5538 31.0967C56.5285 31.096 56.504 31.0998 56.4803 31.109C56.4565 31.1182 56.4358 31.1312 56.4174 31.1481C56.3991 31.1657 56.3845 31.1856 56.3738 31.2094C56.3531 31.2569 56.3516 31.3059 56.3699 31.3549C56.3883 31.404 56.4213 31.4392 56.4688 31.4614L57.0342 31.7189V39.9037L32.2835 28.6366V20.451L32.4896 20.546C32.5379 20.5682 32.5869 20.5705 32.6367 20.5521C32.6865 20.5345 32.7225 20.5016 32.7447 20.4533C32.7662 20.405 32.7677 20.3568 32.7493 20.307C32.731 20.2572 32.6972 20.2212 32.6497 20.1989L32.2835 20.0319V10.1799L32.4896 10.2749C32.5379 10.2971 32.5869 10.2987 32.6367 10.2803C32.6865 10.2611 32.7225 10.2282 32.7447 10.1799C32.7654 10.1316 32.7662 10.0834 32.7478 10.0343C32.7294 9.98531 32.6972 9.95006 32.6497 9.92708L32.2835 9.75393V1.09406L57.0342 12.3612V21.0279ZM31.5189 1.00366V9.57082L30.7543 9.92018C30.7144 9.93934 30.6845 9.96922 30.6646 10.0091C30.6447 10.0489 30.6393 10.091 30.6485 10.1347C30.6585 10.1784 30.68 10.2144 30.7144 10.2427C30.7489 10.2711 30.7887 10.2856 30.8332 10.2864C30.8608 10.2856 30.8876 10.2795 30.9121 10.268L31.5189 9.9899V19.8519L30.7543 20.2035C30.7313 20.2143 30.7114 20.2281 30.6937 20.2464C30.6769 20.2648 30.6631 20.2863 30.6547 20.31C30.6455 20.3338 30.6416 20.3583 30.6424 20.3836C30.6432 20.4089 30.6493 20.4326 30.6593 20.4556C30.6937 20.5299 30.752 20.5667 30.8332 20.5675C30.8608 20.5667 30.8876 20.5606 30.9121 20.5483L31.5189 20.271V28.4558L6.56672 39.9014V31.7189L7.13214 31.4591C7.18041 31.4369 7.21335 31.4009 7.23097 31.3511C7.24936 31.3013 7.24706 31.2523 7.22484 31.2048C7.20263 31.1565 7.16738 31.1236 7.11758 31.1059C7.06855 31.0876 7.02028 31.0898 6.97278 31.1121L6.56672 31.2967V21.447L7.13214 21.1873C7.18041 21.1651 7.21335 21.1291 7.23097 21.0793C7.24936 21.0295 7.24706 20.9812 7.22484 20.9329C7.20263 20.8854 7.16738 20.8525 7.11758 20.8341C7.06855 20.8165 7.02028 20.818 6.97278 20.8402L6.56672 21.0256V12.3612L31.5189 1.00366ZM31.702 52.4074L23.7976 48.5843L31.7993 44.7711L39.7344 48.5521L31.702 52.4074ZM23.3432 13.5395C23.321 13.492 23.3187 13.4437 23.3371 13.3939C23.3555 13.3449 23.3877 13.3089 23.4359 13.2874L25.2663 12.4493C25.313 12.4332 25.359 12.4347 25.4042 12.4546C25.4494 12.4738 25.4823 12.506 25.5023 12.5504C25.523 12.5956 25.526 12.6408 25.5115 12.6883C25.4969 12.735 25.4686 12.7711 25.4257 12.7963L23.5953 13.6345C23.5708 13.6452 23.544 13.6506 23.5172 13.6506C23.4352 13.6514 23.3769 13.6138 23.3432 13.5395ZM27.0016 11.8632C26.9794 11.8149 26.9771 11.7666 26.9955 11.7168C27.0131 11.667 27.0461 11.631 27.0943 11.6088L28.9247 10.7699C28.9707 10.7545 29.0166 10.7561 29.0618 10.776C29.107 10.7951 29.14 10.8273 29.1607 10.8717C29.1813 10.917 29.1844 10.9622 29.1699 11.0097C29.1553 11.0564 29.1262 11.0924 29.084 11.1177L27.2537 11.9559C27.2292 11.9674 27.2024 11.9735 27.1748 11.9742C27.0936 11.9742 27.0353 11.9367 27.0016 11.8632ZM8.69816 20.2549C8.6882 20.2303 8.68284 20.2051 8.68361 20.1783C8.68361 20.1522 8.68974 20.1269 8.70046 20.1024C8.71119 20.0787 8.72728 20.058 8.74643 20.0403C8.76635 20.0227 8.78934 20.0105 8.81462 20.002L10.6419 19.1616C10.6657 19.1478 10.6909 19.1393 10.7178 19.1363C10.7453 19.1332 10.7714 19.1355 10.7974 19.1432C10.8235 19.1516 10.8465 19.1646 10.8672 19.1822C10.8878 19.2006 10.9039 19.2221 10.9147 19.2466C10.9261 19.2711 10.9323 19.2972 10.9323 19.3248C10.933 19.3516 10.9277 19.3776 10.917 19.4029C10.9062 19.4282 10.8909 19.4496 10.871 19.468C10.8511 19.4864 10.8281 19.5002 10.802 19.5086L8.97168 20.3468C8.94716 20.3591 8.92035 20.3652 8.89277 20.366C8.85369 20.3675 8.81692 20.3591 8.78321 20.3384C8.7495 20.3185 8.72421 20.2901 8.70736 20.2549H8.69816ZM12.3658 18.5755C12.355 18.5525 12.3489 18.5279 12.3481 18.5027C12.3466 18.4774 12.3512 18.4521 12.3596 18.4283C12.3688 18.4046 12.3818 18.3831 12.3995 18.3648C12.4171 18.3456 12.4378 18.331 12.4608 18.3211L14.2888 17.4806C14.3126 17.4668 14.3378 17.4584 14.3647 17.4553C14.3915 17.4515 14.4183 17.4546 14.4443 17.4622C14.4704 17.4707 14.4934 17.4837 14.5141 17.5013C14.534 17.5197 14.5501 17.5411 14.5616 17.5657C14.573 17.5902 14.5792 17.6162 14.5792 17.6438C14.5799 17.6706 14.5746 17.6967 14.5639 17.722C14.5531 17.7465 14.5378 17.7687 14.5171 17.7871C14.4972 17.8055 14.4742 17.8193 14.4489 17.8277L12.6209 18.6682C12.5948 18.6796 12.568 18.685 12.5397 18.6842C12.4592 18.685 12.401 18.6482 12.3658 18.5755ZM16.0241 16.8968C16.0027 16.8493 16.0012 16.8003 16.0203 16.7512C16.0387 16.7022 16.0717 16.667 16.1192 16.6447L17.9495 15.8043C17.9978 15.7828 18.046 15.7813 18.0951 15.7997C18.1441 15.8181 18.1801 15.8518 18.2023 15.8993C18.2123 15.9223 18.2184 15.946 18.2192 15.9713C18.22 15.9966 18.2161 16.0211 18.2069 16.0448C18.1985 16.0686 18.1855 16.09 18.1679 16.1084C18.1502 16.1268 18.1303 16.1414 18.1073 16.1513L16.2793 16.9918C16.231 17.0125 16.182 17.014 16.1329 16.9956C16.0831 16.9773 16.0471 16.9443 16.0241 16.8968ZM19.6848 15.2182C19.6626 15.1707 19.6603 15.1224 19.6787 15.0726C19.6971 15.0236 19.73 14.9875 19.7775 14.9661L21.6079 14.1279C21.6309 14.1157 21.6554 14.1088 21.6814 14.1065C21.7075 14.1049 21.7328 14.108 21.7573 14.1164C21.7818 14.1248 21.804 14.1379 21.8232 14.1555C21.8423 14.1731 21.8577 14.1938 21.8684 14.2176C21.8791 14.2413 21.8845 14.2658 21.8852 14.2919C21.886 14.3179 21.8814 14.3432 21.8715 14.367C21.8623 14.3915 21.8477 14.4122 21.8293 14.4305C21.8109 14.4489 21.7895 14.4635 21.765 14.4727L19.9354 15.3109C19.9101 15.3216 19.884 15.3269 19.8565 15.3269C19.8197 15.3277 19.7852 15.3178 19.7546 15.2986C19.7232 15.2787 19.7002 15.2519 19.6848 15.2182ZM45.3066 15.8993C45.3289 15.851 45.3649 15.8181 45.4147 15.7997C45.4645 15.7813 45.5127 15.7828 45.5618 15.8043L47.4151 16.6447C47.4618 16.667 47.4948 16.703 47.5132 16.752C47.5316 16.8003 47.5308 16.8493 47.5101 16.8968C47.494 16.9313 47.4703 16.9589 47.4381 16.9788C47.4067 16.9987 47.3714 17.0087 47.3339 17.0079C47.3063 17.0079 47.2803 17.0025 47.255 16.9918L45.4016 16.1513C45.3541 16.1291 45.3212 16.0939 45.302 16.0448C45.2837 15.9958 45.2852 15.9468 45.3066 15.8993ZM52.6855 19.2589C52.6962 19.2359 52.7108 19.2152 52.7292 19.1983C52.7475 19.1807 52.7682 19.1677 52.792 19.1585C52.8157 19.1501 52.8403 19.1455 52.8655 19.147C52.8908 19.1478 52.9153 19.1531 52.9383 19.1639L54.7917 20.002C54.8323 20.0212 54.8621 20.0511 54.8821 20.0909C54.9012 20.1307 54.9066 20.1729 54.8974 20.2166C54.8882 20.2602 54.866 20.2955 54.8315 20.3238C54.797 20.3522 54.7572 20.3675 54.7127 20.3683C54.6852 20.3675 54.6591 20.3614 54.6338 20.3491L52.7805 19.5109C52.7575 19.501 52.7376 19.4864 52.72 19.468C52.7023 19.4496 52.6893 19.4282 52.6809 19.4044C52.6717 19.3814 52.6679 19.3569 52.6686 19.3316C52.6694 19.3064 52.6748 19.2818 52.6855 19.2589ZM41.6184 14.2206C41.6406 14.1724 41.6758 14.1394 41.7249 14.121C41.7739 14.1026 41.8229 14.1042 41.8704 14.1256L43.7245 14.9661C43.772 14.9875 43.805 15.0236 43.8226 15.0726C43.841 15.1224 43.8387 15.1707 43.8172 15.2182C43.8019 15.2526 43.7782 15.2794 43.7467 15.3001C43.7153 15.3201 43.6809 15.33 43.6433 15.3292C43.6165 15.3285 43.5912 15.3224 43.5667 15.3109L41.7134 14.4704C41.6659 14.4482 41.6337 14.4129 41.6153 14.3647C41.5969 14.3164 41.5977 14.2681 41.6184 14.2206ZM48.9972 17.5779C49.0194 17.5304 49.0547 17.4975 49.1045 17.4791C49.1535 17.4607 49.2018 17.463 49.25 17.4852L51.1034 18.3234C51.144 18.3425 51.1739 18.3717 51.1938 18.4123C51.2129 18.4521 51.2183 18.4942 51.2091 18.5371C51.1999 18.5808 51.1777 18.6168 51.1432 18.6452C51.1087 18.6735 51.0689 18.6881 51.0245 18.6888C50.9969 18.6888 50.9708 18.6827 50.9455 18.6705L49.0922 17.8323C49.0439 17.8101 49.0102 17.7748 48.9919 17.725C48.9735 17.6752 48.975 17.6262 48.9972 17.5779ZM34.2418 10.8626C34.2518 10.8396 34.2656 10.8189 34.284 10.8013C34.3023 10.7844 34.3238 10.7706 34.3475 10.7622C34.3713 10.753 34.3958 10.7492 34.4211 10.7499C34.4471 10.7507 34.4709 10.7568 34.4939 10.7676L36.3472 11.6065C36.3878 11.6249 36.4177 11.6548 36.4376 11.6946C36.4575 11.7344 36.4621 11.7766 36.4529 11.8203C36.4437 11.8639 36.4215 11.8999 36.3871 11.9283C36.3526 11.9566 36.3135 11.9712 36.2683 11.972C36.2407 11.972 36.2147 11.9651 36.1901 11.9536L34.336 11.1154C34.3131 11.1047 34.2931 11.0901 34.2755 11.0717C34.2587 11.0533 34.2449 11.0326 34.2365 11.0089C34.2273 10.9851 34.2234 10.9606 34.2242 10.9353C34.225 10.9101 34.2311 10.8855 34.2418 10.8626ZM37.9301 12.532C37.94 12.509 37.9546 12.4891 37.973 12.4715C37.9914 12.4546 38.0128 12.4408 38.0366 12.4324C38.0603 12.4232 38.0849 12.4194 38.1101 12.4202C38.1354 12.4209 38.1592 12.427 38.1822 12.437L40.0355 13.2782C40.0592 13.2882 40.0799 13.302 40.0968 13.3204C40.1144 13.3388 40.1282 13.3602 40.1366 13.384C40.1458 13.4077 40.1496 13.4322 40.1489 13.4575C40.1473 13.4828 40.142 13.5073 40.1305 13.5303C40.109 13.5778 40.073 13.6108 40.024 13.6291C39.975 13.6483 39.9259 13.6468 39.8784 13.6253L38.0251 12.7848C38.0013 12.7741 37.9814 12.7603 37.9638 12.7412C37.9469 12.7228 37.9339 12.7021 37.9247 12.6783C37.9155 12.6546 37.9117 12.6301 37.9125 12.6048C37.9132 12.5795 37.9194 12.555 37.9301 12.532ZM23.334 23.8045C23.3118 23.7562 23.3095 23.7072 23.3279 23.6574C23.3455 23.6083 23.3785 23.5716 23.4268 23.5493L25.264 22.7204C25.3107 22.705 25.3559 22.7066 25.4019 22.7257C25.4471 22.7456 25.48 22.7771 25.5 22.8223C25.5207 22.8667 25.5237 22.9127 25.5092 22.9594C25.4946 23.0069 25.4663 23.0429 25.4234 23.0682L23.593 23.9064C23.5685 23.9179 23.5424 23.924 23.5149 23.9248C23.4344 23.9232 23.3769 23.8864 23.3432 23.8137L23.334 23.8045ZM19.6848 25.4992C19.6626 25.4517 19.6603 25.4027 19.6787 25.3536C19.6971 25.3046 19.73 25.2686 19.7775 25.2464L21.6079 24.4082C21.6554 24.3867 21.7037 24.3844 21.7535 24.4028C21.8025 24.4205 21.8385 24.4534 21.86 24.5009C21.8822 24.5484 21.8845 24.5974 21.8661 24.6465C21.8485 24.6955 21.8155 24.7315 21.768 24.7537L19.9354 25.585C19.9101 25.5957 19.884 25.6011 19.8565 25.6011C19.7775 25.6034 19.7201 25.5697 19.6848 25.4992ZM16.0241 27.1779C16.0027 27.1296 16.0012 27.0813 16.0203 27.0323C16.0387 26.9832 16.0717 26.9472 16.1192 26.9258L17.9495 26.0845C17.9978 26.0639 18.046 26.0623 18.0951 26.0807C18.1441 26.0991 18.1801 26.1321 18.2023 26.1796C18.2123 26.2025 18.2184 26.2271 18.2192 26.2523C18.22 26.2776 18.2161 26.3021 18.2069 26.3259C18.1985 26.3496 18.1855 26.3703 18.1679 26.3887C18.1502 26.4071 18.1303 26.4217 18.1073 26.4324L16.2793 27.2729C16.231 27.2935 16.182 27.2943 16.1329 27.2767C16.0831 27.2583 16.0471 27.2254 16.0241 27.1779ZM12.3658 28.8565C12.3558 28.8335 12.3497 28.8098 12.3489 28.7837C12.3481 28.7584 12.352 28.7339 12.3612 28.7109C12.3696 28.6872 12.3826 28.6657 12.4002 28.6473C12.4179 28.629 12.4378 28.6144 12.4608 28.6044L14.2888 27.764C14.3126 27.7494 14.3378 27.741 14.3647 27.7379C14.3915 27.7349 14.4183 27.7371 14.4443 27.7456C14.4704 27.754 14.4934 27.767 14.5141 27.7847C14.534 27.8023 14.5501 27.8237 14.5616 27.849C14.573 27.8735 14.5792 27.8996 14.5792 27.9264C14.5799 27.954 14.5746 27.98 14.5639 28.0045C14.5531 28.0298 14.5378 28.0513 14.5171 28.0704C14.4972 28.0888 14.4742 28.1018 14.4489 28.111L12.6209 28.9515C12.5948 28.9622 12.568 28.9676 12.5397 28.9676C12.5014 28.9668 12.4661 28.9553 12.4347 28.9339C12.4033 28.9117 12.3803 28.8826 12.3658 28.8473V28.8565ZM8.70736 30.5352C8.69663 30.5122 8.6905 30.4884 8.68974 30.4624C8.68897 30.4371 8.6928 30.4126 8.70199 30.3888C8.71042 30.3651 8.72421 30.3444 8.74107 30.326C8.75869 30.3076 8.77937 30.293 8.80236 30.2831L10.6304 29.4357C10.6542 29.4219 10.6794 29.4127 10.7063 29.4097C10.7331 29.4066 10.7599 29.4089 10.7859 29.4173C10.812 29.4258 10.835 29.4388 10.8557 29.4564C10.8763 29.474 10.8917 29.4955 10.9032 29.5208C10.9147 29.5453 10.9208 29.5713 10.9208 29.5981C10.9215 29.6257 10.9162 29.6518 10.9055 29.6771C10.8947 29.7016 10.8794 29.7238 10.8595 29.7422C10.8396 29.7606 10.8166 29.7744 10.7905 29.7828L8.96019 30.621C8.93567 30.6332 8.90886 30.6393 8.88127 30.6393C8.7993 30.6386 8.74107 30.601 8.70736 30.526V30.5352ZM27.0108 22.1442C26.9886 22.0959 26.9863 22.0469 27.0047 21.9971C27.0223 21.9481 27.0553 21.9121 27.1035 21.8891L28.9339 21.0509C28.9799 21.0348 29.0258 21.0371 29.071 21.0563C29.117 21.0762 29.1499 21.1076 29.1699 21.1528C29.1905 21.1972 29.1936 21.2432 29.1791 21.2899C29.1645 21.3374 29.1361 21.3735 29.0932 21.398L27.2629 22.2369C27.2384 22.2484 27.2123 22.2545 27.1847 22.2553C27.1441 22.2561 27.1074 22.2453 27.0737 22.2231C27.0407 22.2017 27.0162 22.1718 27.0016 22.135L27.0108 22.1442ZM49.0064 27.8582C49.0286 27.8107 49.0646 27.7778 49.1137 27.7601C49.1627 27.7417 49.2117 27.744 49.2592 27.7663L51.1126 28.6044C51.1532 28.6236 51.1831 28.6527 51.203 28.6925C51.2221 28.7332 51.2275 28.7745 51.2183 28.8182C51.2091 28.8619 51.1869 28.8979 51.1524 28.9262C51.1179 28.9546 51.0781 28.9691 51.0337 28.9699C51.0061 28.9699 50.98 28.9638 50.9547 28.9515L49.1014 28.1133C49.0761 28.1034 49.0539 28.0896 49.0348 28.0704C49.0156 28.0513 49.001 28.0291 48.9911 28.0045C48.9811 27.9793 48.9765 27.9532 48.9781 27.9264C48.9788 27.8988 48.9857 27.8735 48.9972 27.849L49.0064 27.8582ZM37.9301 22.8131C37.94 22.7901 37.9546 22.7702 37.973 22.7525C37.9914 22.7349 38.0128 22.7219 38.0366 22.7127C38.0603 22.7043 38.0849 22.7004 38.1101 22.7012C38.1354 22.702 38.1592 22.7073 38.1822 22.7181L40.0355 23.5585C40.0592 23.5693 40.0792 23.5838 40.0968 23.6022C40.1136 23.6206 40.1267 23.6413 40.1359 23.665C40.145 23.6888 40.1489 23.7133 40.1481 23.7386C40.1473 23.7639 40.1412 23.7884 40.1305 23.8114C40.109 23.8589 40.073 23.8918 40.024 23.9102C39.975 23.9286 39.9259 23.9271 39.8784 23.9064L38.0251 23.0651C38.0013 23.0552 37.9814 23.0406 37.9638 23.0222C37.9469 23.0038 37.9339 22.9831 37.9247 22.9594C37.9155 22.9356 37.9117 22.9111 37.9125 22.8858C37.9132 22.8606 37.9194 22.836 37.9301 22.8131ZM41.6184 24.4917C41.6406 24.4442 41.6758 24.4113 41.7249 24.3929C41.7739 24.3745 41.8229 24.3753 41.8704 24.3967L43.7245 25.2372C43.772 25.2594 43.805 25.2954 43.8226 25.3444C43.841 25.3935 43.8387 25.4425 43.8172 25.49C43.8019 25.5237 43.7782 25.5513 43.7467 25.5712C43.7153 25.5919 43.6809 25.6011 43.6433 25.6011C43.6157 25.6011 43.5897 25.5957 43.5644 25.585L41.7111 24.7445C41.6636 24.7216 41.6314 24.6863 41.613 24.6373C41.5954 24.5882 41.5969 24.5392 41.6184 24.4917ZM34.2418 21.1344C34.2518 21.1114 34.2656 21.0907 34.284 21.0731C34.3023 21.0555 34.3238 21.0425 34.3475 21.0333C34.3713 21.0241 34.3958 21.0203 34.4211 21.0218C34.4471 21.0226 34.4709 21.0287 34.4939 21.0394L36.3472 21.8799C36.3702 21.8906 36.3909 21.9044 36.4085 21.9228C36.4254 21.9419 36.4384 21.9626 36.4476 21.9864C36.4568 22.0101 36.4606 22.0346 36.4598 22.0599C36.4591 22.0852 36.4529 22.109 36.4422 22.1327C36.4077 22.2063 36.3503 22.243 36.2683 22.2438C36.2415 22.2438 36.2147 22.2384 36.1901 22.227L34.336 21.3865C34.3131 21.3765 34.2931 21.362 34.2755 21.3436C34.2587 21.3252 34.2449 21.3037 34.2365 21.28C34.2273 21.257 34.2234 21.2325 34.2242 21.2072C34.225 21.1819 34.2311 21.1574 34.2418 21.1344ZM45.3066 26.1704C45.3289 26.1229 45.3649 26.0899 45.4147 26.0715C45.4645 26.0531 45.5127 26.0539 45.5618 26.0754L47.4151 26.9158C47.4618 26.9388 47.4948 26.9741 47.5132 27.0231C47.5316 27.0721 47.5308 27.1204 47.5101 27.1687C47.494 27.2031 47.4703 27.23 47.4381 27.2506C47.4067 27.2706 47.3714 27.2805 47.3339 27.2798C47.3063 27.2798 47.2803 27.2744 47.255 27.2637L45.4016 26.4232C45.3541 26.401 45.3212 26.365 45.302 26.3159C45.2837 26.2669 45.2852 26.2186 45.3066 26.1704ZM54.8775 30.5283C54.843 30.6018 54.7848 30.6393 54.7035 30.6393C54.676 30.6401 54.6499 30.634 54.6246 30.621L52.7713 29.7828C52.7238 29.7613 52.6901 29.7253 52.6717 29.6763C52.6533 29.6273 52.6548 29.5782 52.6763 29.5307C52.6985 29.4825 52.7338 29.4495 52.7828 29.4304C52.8326 29.412 52.8809 29.4135 52.9291 29.4357L54.7825 30.2739C54.8307 30.2953 54.8644 30.3314 54.8828 30.3812C54.9012 30.431 54.8997 30.48 54.8775 30.5283ZM63.5373 44.6156C63.5373 48.0564 60.5677 51.3171 55.1786 53.7941C49.9771 56.1838 42.8994 57.6939 35.2332 58.0409H35.2072C35.1313 58.0425 35.0585 58.0294 34.988 58.0026C34.9168 57.975 34.854 57.9352 34.7996 57.8823C34.7444 57.8302 34.7015 57.7689 34.6716 57.7C34.641 57.6303 34.6249 57.5575 34.6226 57.4816C34.6211 57.4058 34.6341 57.333 34.6617 57.2617C34.6892 57.1913 34.7291 57.1284 34.7812 57.074C34.834 57.0189 34.8946 56.976 34.9643 56.9453C35.0333 56.9154 35.106 56.8986 35.1819 56.8971C50.4384 56.2029 62.3912 50.8099 62.3912 44.6248C62.3912 42.6895 61.2044 40.7419 58.9595 38.9981C58.8937 38.9544 58.8393 38.8993 58.7956 38.8326C58.7527 38.7667 58.7243 38.694 58.7113 38.6158C58.6983 38.5377 58.7014 38.4603 58.7205 38.3837C58.7397 38.3063 58.7734 38.2366 58.8216 38.1737C58.8699 38.1109 58.9289 38.0603 58.9986 38.0213C59.0676 37.983 59.1419 37.96 59.2208 37.9523C59.2997 37.9446 59.3771 37.9531 59.4522 37.9776C59.528 38.0021 59.5955 38.0404 59.6544 38.0933C62.1966 40.0546 63.5373 42.3117 63.5373 44.6156ZM30.2448 57.5176C30.2394 57.618 30.2095 57.7107 30.1544 57.7958C30.1 57.88 30.028 57.9459 29.9391 57.9927L26.2577 59.9165C26.191 59.9525 26.1198 59.9747 26.0447 59.9824C25.9689 59.99 25.8953 59.9831 25.8225 59.9617C25.7497 59.9395 25.6846 59.905 25.6256 59.8567C25.5666 59.8092 25.5199 59.7518 25.4839 59.6851C25.4486 59.6184 25.4272 59.5472 25.4195 59.4721C25.4119 59.397 25.4188 59.3235 25.441 59.2507C25.4624 59.1787 25.4969 59.1128 25.5444 59.0538C25.5919 58.9956 25.6494 58.9481 25.7153 58.912L27.4483 58.0065C11.7245 57.1032 0.010717 51.4328 0.010717 44.6156C0.010717 42.1616 1.52081 39.7765 4.38011 37.7156C4.4414 37.6673 4.50959 37.6321 4.58467 37.6121C4.66052 37.5915 4.73637 37.5861 4.81375 37.5968C4.89113 37.6075 4.96392 37.6328 5.03057 37.6734C5.09799 37.7133 5.15392 37.7654 5.19989 37.8282C5.24586 37.8918 5.27727 37.9615 5.29413 38.0374C5.31175 38.114 5.31252 38.1906 5.29873 38.2672C5.28417 38.3438 5.25582 38.4151 5.21215 38.4802C5.16925 38.5453 5.11485 38.5989 5.04973 38.6418C2.50302 40.4806 1.16915 42.5454 1.16915 44.6156C1.16915 50.7517 12.7527 56.0635 27.7402 56.8649L25.9773 55.6651C25.9145 55.6229 25.8624 55.5693 25.8202 55.5065C25.7789 55.4429 25.7505 55.3739 25.7367 55.2989C25.7222 55.2245 25.7229 55.1502 25.7382 55.0759C25.7536 55.0016 25.7827 54.9326 25.8256 54.8698C25.8685 54.807 25.9214 54.7549 25.9849 54.7135C26.0485 54.6714 26.1175 54.6438 26.1918 54.6292C26.2669 54.6154 26.3412 54.6154 26.4155 54.6315C26.4898 54.6469 26.5588 54.676 26.6216 54.7181L29.995 57.0104C30.0778 57.0671 30.1421 57.1407 30.1865 57.2311C30.231 57.3215 30.2509 57.4173 30.2448 57.5176Z" fill="url(#paint0_linear_18431_2260)"/>
<defs>
<linearGradient id="paint0_linear_18431_2260" x1="0" y1="30" x2="63.5481" y2="30" gradientUnits="userSpaceOnUse">
<stop stop-color="#0CBAF1"/>
<stop offset="1" stop-color="#E95CE9"/>
</linearGradient>
</defs>
</svg>
