<svg width="49" height="9" viewBox="0 0 49 9" fill="none" xmlns="http://www.w3.org/2000/svg">
<path d="M43.8149 2.70735C43.3055 2.732 42.7961 2.75529 42.2871 2.78196C41.128 2.84272 39.968 2.89336 38.8103 2.96999C37.942 3.02771 37.0788 3.13439 36.2175 3.24917C35.9882 3.27955 35.7514 3.26469 35.5236 3.30014C33.3694 3.63367 31.1844 3.73629 29.0238 4.02357C28.0469 4.15387 27.0622 4.22983 26.0894 4.38511C23.9266 4.73045 21.7398 4.9357 19.5715 5.25269C18.1263 5.46401 16.6808 5.67432 15.2349 5.88362C13.7656 6.09562 12.2956 6.3012 10.8267 6.51489C9.64532 6.68705 8.46428 6.86124 7.28547 7.04623C6.70088 7.13839 6.10888 7.15561 5.52133 7.21739C4.44773 7.32912 3.38154 7.49352 2.30423 7.57927C2.14308 7.60594 1.98526 7.5948 1.83041 7.54619C1.66259 7.4834 1.46402 7.54956 1.27879 7.55631L0.343745 7.58872C0.566763 7.49487 0.801266 7.44863 1.04688 7.4493C1.26805 7.42162 1.4292 7.37368 1.43365 7.13738C1.43402 7.11274 1.46958 7.08877 1.51552 7.03104L0.376346 7.14177C0.553056 7.00032 0.603439 6.9875 1.13839 6.93652C1.39438 6.92808 1.64592 6.89162 1.89228 6.82748C2.14049 6.74647 2.34276 6.57633 2.63283 6.54223C2.5354 6.46864 2.44982 6.50206 2.32276 6.47742C2.70063 6.4072 3.03256 6.34576 3.3645 6.28365C3.41932 6.27352 3.48082 6.27791 3.51527 6.22322C3.56306 6.1476 3.31559 6.01392 3.58677 5.97173C3.70384 5.95383 3.70754 5.77154 3.8461 5.7307C3.91723 5.7101 3.97057 5.65643 3.9376 5.58554C3.9013 5.50553 3.81609 5.54537 3.75385 5.55245C3.30522 5.60444 2.85696 5.65947 2.40833 5.71483C2.24162 5.7496 2.07973 5.73576 1.9234 5.67297C2.0827 5.64664 2.24236 5.62166 2.40129 5.5933C2.57319 5.56258 2.74175 5.52477 2.91327 5.49608C3.72533 5.36307 4.53701 5.22872 5.35017 5.10145C6.70273 4.88878 8.05603 4.68387 9.40637 4.4739C10.414 4.31726 11.418 4.14172 12.4286 4.00298C13.151 3.90305 13.8712 3.78524 14.5917 3.67586C15.3345 3.56311 16.0765 3.4345 16.8204 3.32647C17.5873 3.21541 18.3553 3.09861 19.124 2.99193C19.9149 2.88188 20.707 2.78162 21.4971 2.66853C22.8864 2.47004 24.283 2.33264 25.6774 2.1804C27.2349 2.01161 28.7945 1.85733 30.3549 1.71049C31.6148 1.59166 32.877 1.49174 34.1381 1.38641C34.9927 1.31519 35.8503 1.26489 36.7061 1.22809C38.3762 1.15619 40.044 1.04782 41.7151 0.990436C43.6078 0.925959 45.5013 0.906042 47.3943 0.858106C47.5933 0.852705 47.7896 0.870934 47.9834 0.913131C47.6977 0.940813 47.4125 0.983685 47.1257 0.993475C46.5226 1.01339 45.9154 0.978959 45.3157 1.03466C44.5281 1.10758 43.7356 1.02656 42.9532 1.12412C42.5164 1.17948 42.0771 1.20784 41.6359 1.20952C41.6129 1.20952 41.5821 1.20547 41.5681 1.21628C41.238 1.48701 40.819 1.34219 40.4467 1.41376C40.0162 1.49815 39.5813 1.55554 39.1423 1.5866C37.7304 1.68348 36.319 1.78476 34.9086 1.90257C33.2075 2.04469 31.5052 2.17972 29.8111 2.38193C29.7133 2.39374 29.5984 2.3745 29.5103 2.47881C29.611 2.55781 29.7285 2.52405 29.8296 2.51764C31.0988 2.44101 32.3676 2.361 33.6365 2.27796C33.9721 2.25635 34.3092 2.2415 34.6426 2.20369C35.0709 2.17364 35.4973 2.18478 35.923 2.23745C36.0382 2.24825 36.1541 2.25027 36.2701 2.24319C37.856 2.12166 39.4483 2.08081 41.0357 1.98528C41.3936 1.9424 41.7526 1.93295 42.1126 1.95692C42.4942 2.00621 42.891 1.95793 43.2629 2.13246C43.526 2.2388 43.7994 2.27154 44.0835 2.2307C44.2187 2.21145 44.3521 2.21956 44.4832 2.255C44.3554 2.33163 44.2154 2.36336 44.0631 2.3502C43.9931 2.34581 43.9257 2.35526 43.8601 2.37855C43.6208 2.44134 43.6141 2.47341 43.7927 2.64828C43.8064 2.66144 43.8053 2.68744 43.8116 2.70702L43.8149 2.70735ZM16.6885 6.00751C16.5863 5.95755 16.4774 5.92683 16.3618 5.91603C16.2462 5.90489 16.1329 5.91434 16.0213 5.94404C15.7505 6.00312 15.4775 6.04869 15.2015 6.08009C14.1746 6.1925 13.1584 6.36737 12.1367 6.5105C9.4612 6.88588 6.78905 7.28153 4.10394 7.59851C4.03985 7.60594 3.95983 7.59277 3.92908 7.65354C3.93797 7.6802 3.95205 7.70417 3.97094 7.72611C3.99021 7.74772 4.01281 7.76561 4.03948 7.77945C4.06615 7.79295 4.09431 7.80173 4.12468 7.80578C4.15506 7.8095 4.18507 7.80815 4.21471 7.80173C4.59295 7.74704 4.97638 7.72038 5.35573 7.67008C7.49182 7.38584 9.61605 7.02801 11.7603 6.79339C11.8636 6.78225 11.9652 6.75592 12.0681 6.74208C12.8691 6.63878 13.6567 6.46695 14.4584 6.36568C15.1137 6.28297 15.7661 6.18102 16.4192 6.0838C16.5152 6.08076 16.6015 6.05274 16.6778 5.99974L16.6885 6.00751ZM15.02 6.19621C14.9874 6.22153 14.95 6.23639 14.9074 6.24077C14.8651 6.24483 14.8248 6.23807 14.787 6.21984C14.8611 6.18305 14.9389 6.17528 15.02 6.19621ZM16.6778 5.99974C16.7556 6.02641 16.8349 6.02945 16.9153 6.0092C17.4284 5.93155 17.9422 5.85459 18.4568 5.78538C19.6834 5.62031 20.9103 5.45793 22.1377 5.29758C22.4574 5.25539 22.7775 5.21386 23.1061 5.17099C23.0116 5.12981 22.9123 5.10854 22.8075 5.10719C22.703 5.1055 22.603 5.12441 22.5074 5.16323C22.2692 5.24999 21.9832 5.22467 21.7191 5.25876C21.3497 5.28206 20.9844 5.33134 20.6236 5.40696C20.345 5.48798 20.062 5.50553 19.7741 5.45996L20.3069 5.3786C19.7067 5.42114 19.1106 5.49237 18.519 5.59296C18.0085 5.65339 17.4995 5.73677 16.9883 5.80057C16.896 5.81104 16.806 5.82994 16.7182 5.85661C16.6289 5.88598 16.6378 5.94674 16.6874 6.00751L16.6778 5.99974ZM18.107 5.71719C18.3249 5.64191 18.5501 5.61491 18.782 5.63719C18.5623 5.70031 18.3371 5.72698 18.107 5.71719ZM35.6129 3.63097L37.9383 3.40546L37.9361 3.38453L35.6195 3.60936L35.6129 3.63097ZM44.8863 2.5973C44.9285 2.68845 45.0163 2.67495 45.0945 2.66516C45.3138 2.65537 45.5305 2.62735 45.7439 2.5811L44.8852 2.5973H44.8863ZM22.3277 5.10246L21.5505 5.17774L21.5538 5.20543L22.3311 5.12981L22.3277 5.10246ZM44.8852 2.5973C44.5262 2.63106 44.1572 2.57604 43.8116 2.70803C43.8134 2.70769 43.8149 2.70702 43.8164 2.70634C44.1791 2.71681 44.5351 2.68035 44.8863 2.5973H44.8852ZM34.1266 3.76971L34.5941 3.72447L34.5919 3.70827L34.1177 3.75418L34.1266 3.76971ZM29.9922 4.16704L29.5217 4.21261L29.524 4.23185L29.9911 4.18662L29.9922 4.16704ZM25.1388 4.75307C24.9462 4.78143 24.8061 4.74328 24.6824 4.8189C24.8428 4.84591 24.9951 4.82396 25.1388 4.75307ZM30.4175 4.13834L30.8209 4.09918C30.6831 4.08231 30.5487 4.09513 30.4175 4.13834ZM24.9224 4.92827L25.314 4.89013C25.1836 4.87764 25.0432 4.80033 24.9224 4.92827ZM32.2557 3.93073C32.1198 3.92905 31.992 3.9574 31.8723 4.0158C32.0294 3.98137 32.1298 4.00568 32.2557 3.93073ZM34.9601 3.69409C35.0413 3.70456 35.1183 3.69274 35.1913 3.65865C35.1105 3.66202 35.0279 3.64278 34.9601 3.69409ZM23.9767 4.90768C24.013 4.90431 24.013 4.88371 23.9648 4.86616L23.6292 4.92051C23.7948 4.91511 23.8863 4.91545 23.9767 4.90768ZM23.8259 5.03799C23.9559 5.05014 24.0808 5.03124 24.1997 4.98161C24.0456 4.99613 23.9533 4.94313 23.8259 5.03799ZM28.3025 4.39625C28.2388 4.38174 28.1784 4.38849 28.121 4.41752C28.1858 4.42123 28.2462 4.43609 28.3025 4.39625ZM26.3761 4.59644L26.5421 4.58023L26.3765 4.57416L26.3761 4.59644ZM31.4526 4.03066C31.4781 4.04078 31.5052 4.04416 31.533 4.04078C31.5608 4.03741 31.5856 4.02796 31.6078 4.01175C31.55 4.005 31.4948 3.9861 31.4526 4.03066ZM29.192 4.25008C29.1698 4.24806 29.1479 4.24772 29.1257 4.24941C29.1102 4.25312 29.0953 4.2592 29.0816 4.2673L29.1487 4.27135C29.1631 4.26392 29.1776 4.25683 29.192 4.25008Z" fill="url(#paint0_linear_18423_2202)"/>
<defs>
<linearGradient id="paint0_linear_18423_2202" x1="0" y1="4.0965" x2="48.2979" y2="4.0965" gradientUnits="userSpaceOnUse">
<stop stop-color="#0CBAF1"/>
<stop offset="1" stop-color="#E95CE9"/>
</linearGradient>
</defs>
</svg>
