<svg width="48" height="48" viewBox="0 0 48 48" fill="none" xmlns="http://www.w3.org/2000/svg">
<path fill-rule="evenodd" clip-rule="evenodd" d="M39.797 40.1618C39.797 40.5501 40.1118 40.8649 40.5001 40.8649H43.207C45.8563 40.8649 48 38.7108 48 36.0583V16.4753C48 13.8228 45.8563 11.6687 43.207 11.6687H32.429C32.0407 11.6687 31.7259 11.9835 31.7259 12.3718C31.7259 12.7602 32.0407 13.075 32.429 13.075H43.207C45.0753 13.075 46.5938 14.5951 46.5938 16.4753V36.0583C46.5938 37.9385 45.0753 39.4586 43.207 39.4586H40.5001C40.1118 39.4586 39.797 39.7734 39.797 40.1618Z" fill="url(#paint0_linear_18478_2401)"/>
<path fill-rule="evenodd" clip-rule="evenodd" d="M6.56255 47.9381C6.81493 48.0516 7.11043 48.0065 7.31748 47.8229L15.1638 40.8649H36.3454C36.7337 40.8649 37.0485 40.5501 37.0485 40.1617C37.0485 39.7734 36.7337 39.4586 36.3454 39.4586H14.897C14.725 39.4586 14.5591 39.5216 14.4305 39.6357L7.55409 45.7336V40.1617C7.55409 39.7734 7.23929 39.4586 6.85097 39.4586H4.79306C2.92484 39.4586 1.40625 37.9385 1.40625 36.0583V16.4753C1.40625 14.5951 2.92486 13.0749 4.79306 13.0749H15.3665C15.7548 13.0749 16.0696 12.7601 16.0696 12.3718C16.0696 11.9835 15.7548 11.6687 15.3665 11.6687H4.79306C2.14383 11.6687 0 13.8229 0 16.4753V36.0583C0 38.7108 2.14385 40.8649 4.79306 40.8649H6.14784V47.2969C6.14784 47.5736 6.31017 47.8246 6.56255 47.9381Z" fill="url(#paint1_linear_18478_2401)"/>
<path fill-rule="evenodd" clip-rule="evenodd" d="M7.53107 22.013C7.53107 22.4013 7.84587 22.7161 8.23419 22.7161H39.7659C40.1542 22.7161 40.469 22.4013 40.469 22.013C40.469 21.6247 40.1542 21.3099 39.7659 21.3099H8.23419C7.84587 21.3099 7.53107 21.6247 7.53107 22.013Z" fill="url(#paint2_linear_18478_2401)"/>
<path fill-rule="evenodd" clip-rule="evenodd" d="M7.53107 26.7652C7.53107 27.1535 7.84587 27.4683 8.23419 27.4683H39.7659C40.1542 27.4683 40.469 27.1535 40.469 26.7652C40.469 26.3768 40.1542 26.062 39.7659 26.062H8.23419C7.84587 26.062 7.53107 26.3768 7.53107 26.7652Z" fill="url(#paint3_linear_18478_2401)"/>
<path fill-rule="evenodd" clip-rule="evenodd" d="M7.53107 31.5174C7.53107 31.9057 7.84587 32.2205 8.23419 32.2205H27.1557C27.544 32.2205 27.8588 31.9057 27.8588 31.5174C27.8588 31.129 27.544 30.8142 27.1557 30.8142H8.23419C7.84587 30.8142 7.53107 31.129 7.53107 31.5174Z" fill="url(#paint4_linear_18478_2401)"/>
<path fill-rule="evenodd" clip-rule="evenodd" d="M14.4196 9.58041C14.4196 14.8715 18.7089 19.1607 24 19.1607C29.2912 19.1607 33.5804 14.8715 33.5804 9.58041C33.5804 4.28933 29.2912 0 24 0C22.3015 0 20.7043 0.442637 19.3195 1.21939C18.9808 1.40937 18.8603 1.83793 19.0503 2.17661C19.2402 2.51529 19.6688 2.63584 20.0075 2.44586C21.1875 1.78393 22.5486 1.40625 24 1.40625C28.5145 1.40625 32.1742 5.06598 32.1742 9.58041C32.1742 14.0948 28.5145 17.7545 24 17.7545C19.4856 17.7545 15.8258 14.0948 15.8258 9.58041C15.8258 7.74184 16.4321 6.04689 17.4557 4.68173C17.6887 4.37105 17.6257 3.93033 17.315 3.69737C17.0043 3.4644 16.5636 3.5274 16.3306 3.83808C15.1308 5.43824 14.4196 7.42728 14.4196 9.58041Z" fill="url(#paint5_linear_18478_2401)"/>
<path fill-rule="evenodd" clip-rule="evenodd" d="M18.436 15.5653C19.6192 13.7442 21.6692 12.5415 23.9998 12.5415C26.2781 12.5415 28.3021 13.7371 29.5409 15.5867C28.0835 16.9325 26.1386 17.7545 24 17.7545C21.8501 17.7545 19.896 16.9239 18.436 15.5653ZM17.0406 16.1609C18.7858 18.006 21.2576 19.1607 24 19.1607C26.7338 19.1607 29.1987 18.013 30.9429 16.1783C31.1566 15.9536 31.1978 15.6155 31.0444 15.3461C29.6212 12.8457 27.0152 11.1353 23.9998 11.1353C20.9466 11.1353 18.2936 12.8385 16.9336 15.3421C16.7884 15.6095 16.8315 15.9399 17.0406 16.1609Z" fill="url(#paint6_linear_18478_2401)"/>
<path fill-rule="evenodd" clip-rule="evenodd" d="M19.8708 8.43595C19.8708 10.7163 21.7193 12.565 23.9998 12.565C26.2802 12.565 28.1289 10.7163 28.1289 8.43595C28.1289 6.15546 26.2802 4.30692 23.9998 4.30692C21.7194 4.30692 19.8708 6.15547 19.8708 8.43595ZM23.9998 11.1587C22.496 11.1587 21.2771 9.9397 21.2771 8.43595C21.2771 6.93212 22.496 5.71317 23.9998 5.71317C25.5036 5.71317 26.7226 6.93213 26.7226 8.43595C26.7226 9.93969 25.5036 11.1587 23.9998 11.1587Z" fill="url(#paint7_linear_18478_2401)"/>
<defs>
<linearGradient id="paint0_linear_18478_2401" x1="0" y1="24" x2="48" y2="24" gradientUnits="userSpaceOnUse">
<stop stop-color="#0CBAF1"/>
<stop offset="1" stop-color="#E95CE9"/>
</linearGradient>
<linearGradient id="paint1_linear_18478_2401" x1="0" y1="24" x2="48" y2="24" gradientUnits="userSpaceOnUse">
<stop stop-color="#0CBAF1"/>
<stop offset="1" stop-color="#E95CE9"/>
</linearGradient>
<linearGradient id="paint2_linear_18478_2401" x1="0" y1="24" x2="48" y2="24" gradientUnits="userSpaceOnUse">
<stop stop-color="#0CBAF1"/>
<stop offset="1" stop-color="#E95CE9"/>
</linearGradient>
<linearGradient id="paint3_linear_18478_2401" x1="0" y1="24" x2="48" y2="24" gradientUnits="userSpaceOnUse">
<stop stop-color="#0CBAF1"/>
<stop offset="1" stop-color="#E95CE9"/>
</linearGradient>
<linearGradient id="paint4_linear_18478_2401" x1="0" y1="24" x2="48" y2="24" gradientUnits="userSpaceOnUse">
<stop stop-color="#0CBAF1"/>
<stop offset="1" stop-color="#E95CE9"/>
</linearGradient>
<linearGradient id="paint5_linear_18478_2401" x1="0" y1="24" x2="48" y2="24" gradientUnits="userSpaceOnUse">
<stop stop-color="#0CBAF1"/>
<stop offset="1" stop-color="#E95CE9"/>
</linearGradient>
<linearGradient id="paint6_linear_18478_2401" x1="0" y1="24" x2="48" y2="24" gradientUnits="userSpaceOnUse">
<stop stop-color="#0CBAF1"/>
<stop offset="1" stop-color="#E95CE9"/>
</linearGradient>
<linearGradient id="paint7_linear_18478_2401" x1="0" y1="24" x2="48" y2="24" gradientUnits="userSpaceOnUse">
<stop stop-color="#0CBAF1"/>
<stop offset="1" stop-color="#E95CE9"/>
</linearGradient>
</defs>
</svg>
