<svg width="48" height="48" viewBox="0 0 48 48" fill="none" xmlns="http://www.w3.org/2000/svg">
<path fill-rule="evenodd" clip-rule="evenodd" d="M13.1832 32.269C11.0893 32.9761 8.78491 32.1375 7.63539 30.2498L3.7383 23.8504C2.02671 21.0397 1.68557 17.6035 2.81111 14.5112L6.77383 3.6238C7.41005 1.87578 9.34291 0.97445 11.0909 1.61067L28.9451 8.10904C30.6931 8.74525 31.5944 10.6782 30.9582 12.4262L26.9955 23.3136C25.8699 26.4059 23.3998 28.8189 20.2821 29.8718L13.1832 32.269ZM13.6331 33.6014C10.9161 34.5189 7.92593 33.4307 6.43432 30.9812L2.53723 24.5818C0.603445 21.4063 0.218022 17.524 1.48967 14.0302L5.45239 3.14283C6.35423 0.664994 9.09406 -0.612622 11.5719 0.289223L29.426 6.78759C31.9039 7.68944 33.1815 10.4294 32.2796 12.9072L28.3169 23.7946C27.0453 27.2883 24.2545 30.0146 20.732 31.2042L13.6331 33.6014C13.6331 33.6014 13.6331 33.6014 13.6331 33.6014Z" fill="url(#paint0_linear_18479_2764)"/>
<path fill-rule="evenodd" clip-rule="evenodd" d="M18.5582 23.6558C17.1359 25.3162 14.7831 26.01 12.6081 25.2184C10.4331 24.4267 9.0767 22.3829 9.05449 20.1967C10.2767 21.212 11.7977 22.0872 13.5196 22.7139C15.2416 23.3407 16.9693 23.6479 18.5582 23.6558ZM12.1272 26.5399C15.4115 27.7352 19.0132 26.2441 20.5404 23.1936C20.6562 22.9625 20.6357 22.6864 20.4871 22.4748C20.3386 22.2632 20.0859 22.1502 19.8291 22.1806C18.1213 22.3826 16.0761 22.1479 14.0006 21.3925C11.9252 20.6371 10.2076 19.5022 9.02924 18.2498C8.85208 18.0615 8.58588 17.9856 8.33607 18.0521C8.08625 18.1187 7.89312 18.317 7.83317 18.5685C7.04208 21.887 8.84287 25.3444 12.1272 26.5399Z" fill="url(#paint1_linear_18479_2764)"/>
<path fill-rule="evenodd" clip-rule="evenodd" d="M13.701 15.4305C14.0778 15.3363 14.3067 14.9545 14.2125 14.5778C13.9155 13.3905 12.9825 12.3565 11.6845 11.8841M13.701 15.4305C13.3243 15.5248 12.9425 15.2958 12.8483 14.9191ZM12.8483 14.9191C12.6721 14.2146 12.0921 13.5289 11.2035 13.2056ZM7.86 13.3046C8.08799 13.619 8.52765 13.689 8.842 13.461C9.42993 13.0345 10.3149 12.8821 11.2035 13.2056M7.86 13.3046C7.632 12.9903 7.70201 12.5506 8.01635 12.3226ZM8.01635 12.3226C9.00715 11.604 10.3865 11.4117 11.6845 11.8841Z" fill="url(#paint2_linear_18479_2764)"/>
<path fill-rule="evenodd" clip-rule="evenodd" d="M23.9033 19.1439C24.2801 19.0497 24.5091 18.6679 24.4148 18.2912C24.1178 17.1038 23.1848 16.0698 21.8868 15.5975M23.9033 19.1439C23.5266 19.2381 23.1448 19.0091 23.0506 18.6324ZM23.0506 18.6324C22.8744 17.9279 22.2945 17.2423 21.4059 16.9189ZM18.0623 17.0178C18.2903 17.3322 18.7299 17.4022 19.0443 17.1743C19.6322 16.7479 20.5172 16.5955 21.4059 16.9189M18.0623 17.0178C17.8343 16.7035 17.9043 16.2638 18.2187 16.0359ZM18.2187 16.0359C19.2095 15.3174 20.5888 15.125 21.8868 15.5975Z" fill="url(#paint3_linear_18479_2764)"/>
<path fill-rule="evenodd" clip-rule="evenodd" d="M15.8157 10.5253C15.9485 10.1604 15.7604 9.75693 15.3955 9.62412C13.3684 8.88634 11.6484 8.83516 10.4224 8.97626C9.81061 9.04667 9.32343 9.16471 8.98332 9.26784C8.81321 9.31943 8.67964 9.36736 8.58538 9.4039C8.53824 9.42217 8.50089 9.4376 8.47368 9.44924C8.46008 9.45505 8.449 9.45992 8.4405 9.46373C8.43625 9.46563 8.43264 9.46726 8.42968 9.46861L8.42572 9.47043L8.42411 9.47117C8.42378 9.47133 8.42274 9.47181 8.71989 10.1091L8.42274 9.47181C8.0708 9.63592 7.91853 10.0543 8.08264 10.4062C8.24629 10.7572 8.66276 10.9096 9.01409 10.7477C9.0142 10.7476 9.01393 10.7477 9.01409 10.7477C9.0157 10.747 9.02014 10.745 9.02658 10.7422C9.03946 10.7367 9.06191 10.7274 9.09358 10.7151C9.15696 10.6905 9.25713 10.6543 9.39141 10.6136C9.6601 10.5321 10.0643 10.433 10.5831 10.3733C11.6182 10.2542 13.1157 10.2909 14.9145 10.9456C15.2794 11.0784 15.6829 10.8902 15.8157 10.5253Z" fill="url(#paint4_linear_18479_2764)"/>
<path fill-rule="evenodd" clip-rule="evenodd" d="M25.5959 16.7805C25.9478 16.6164 26.1001 16.198 25.936 15.8461L25.2987 16.1433C25.936 15.8461 25.9361 15.8464 25.936 15.8461L25.9353 15.8447L25.9346 15.8431L25.9327 15.8392C25.9313 15.8363 25.9296 15.8327 25.9276 15.8285C25.9235 15.8201 25.9181 15.8093 25.9115 15.7961C25.8981 15.7697 25.8794 15.7338 25.855 15.6895C25.8063 15.601 25.7348 15.4784 25.6376 15.3295C25.4434 15.0319 25.1461 14.6283 24.7227 14.1812C23.8742 13.285 22.5237 12.2186 20.4966 11.4808C20.1317 11.348 19.7282 11.5361 19.5954 11.9011C19.4626 12.266 19.6507 12.6694 20.0156 12.8023C21.8144 13.457 22.9852 14.3915 23.7016 15.148C24.0606 15.5272 24.3066 15.863 24.46 16.0981C24.5367 16.2156 24.5901 16.3078 24.6229 16.3673C24.6393 16.3971 24.6505 16.4187 24.6568 16.4312C24.6599 16.4374 24.6619 16.4414 24.6627 16.443C24.6627 16.4431 24.6626 16.4429 24.6627 16.443C24.8277 16.7928 25.2449 16.9442 25.5959 16.7805Z" fill="url(#paint5_linear_18479_2764)"/>
<path fill-rule="evenodd" clip-rule="evenodd" d="M40.3646 44.3257C39.2151 46.2133 36.9107 47.0521 34.8168 46.345L27.7179 43.9477C27.7179 43.9477 27.7179 43.9477 27.7179 43.9477C24.6001 42.8948 22.13 40.4818 21.0045 37.3895C21.0045 37.3895 21.0045 37.3896 21.0045 37.3895L19.748 33.9372C19.6151 33.5723 19.2117 33.3841 18.8468 33.517C18.4818 33.6498 18.2937 34.0533 18.4265 34.4182L19.683 37.8705C20.9547 41.3642 23.7455 44.0904 27.268 45.28L34.3668 47.6773C37.0839 48.5949 40.074 47.5065 41.5656 45.0571L45.4627 38.6577C47.3965 35.4822 47.7819 31.5998 46.5104 28.1061L42.5477 17.2187C41.6458 14.7408 38.906 13.4632 36.4281 14.3651L33.2785 15.5114C32.9136 15.6443 32.7255 16.0477 32.8583 16.4126C32.9911 16.7775 33.3946 16.9657 33.7595 16.8329L36.909 15.6865C38.6572 15.0503 40.59 15.9516 41.2262 17.6996L45.1889 28.5871C46.3144 31.6794 45.9733 35.1157 44.2617 37.9263L40.3646 44.3257Z" fill="url(#paint6_linear_18479_2764)"/>
<path fill-rule="evenodd" clip-rule="evenodd" d="M29.28 41.4055C29.5298 41.4721 29.796 41.3962 29.9732 41.2079C31.1515 39.9554 32.8691 38.8206 34.9445 38.0651C37.02 37.3097 39.0652 37.075 40.773 37.277C41.0298 37.3074 41.2825 37.1944 41.4311 36.9828C41.5796 36.7712 41.6001 36.4952 41.4844 36.264C39.9572 33.2135 36.3554 31.7224 33.0711 32.9178C29.7868 34.1132 27.986 37.5706 28.7771 40.8891C28.8371 41.1406 29.0302 41.3389 29.28 41.4055ZM29.9984 39.2609C30.0206 37.0747 31.377 35.0309 33.5521 34.2392C35.7271 33.4476 38.0798 34.1414 39.5022 35.8018C37.9132 35.8097 36.1856 36.1169 34.4635 36.7437C32.7416 37.3705 31.2207 38.2456 29.9984 39.2609Z" fill="url(#paint7_linear_18479_2764)"/>
<path fill-rule="evenodd" clip-rule="evenodd" d="M26.8264 30.8629C26.0523 31.4062 25.1582 31.489 24.4798 31.2301C24.117 31.0917 23.7106 31.2735 23.5722 31.6364C23.4337 31.9992 23.6156 32.4055 23.9784 32.544C25.1219 32.9803 26.5038 32.8074 27.6344 32.0139C28.7648 31.2202 29.397 29.9793 29.3752 28.7556C29.3683 28.3673 29.048 28.0581 28.6597 28.0651C28.2714 28.072 27.9623 28.3923 27.9692 28.7806C27.9821 29.5067 27.6003 30.3195 26.8264 30.8629Z" fill="url(#paint8_linear_18479_2764)"/>
<path fill-rule="evenodd" clip-rule="evenodd" d="M33.2268 27.3536C33.9966 28.305 35.2785 28.8495 36.6547 28.7307C38.0309 28.6119 39.2006 27.856 39.7961 26.7868C39.9851 26.4476 39.8632 26.0194 39.524 25.8304C39.1847 25.6415 38.7565 25.7633 38.5676 26.1025C38.2142 26.737 37.476 27.2484 36.5338 27.3297C35.5917 27.411 34.7768 27.0336 34.32 26.4691C34.0757 26.1672 33.633 26.1205 33.3311 26.3648C33.0292 26.609 32.9825 27.0518 33.2268 27.3536Z" fill="url(#paint9_linear_18479_2764)"/>
<path fill-rule="evenodd" clip-rule="evenodd" d="M32.1843 24.6012C32.3171 24.9661 32.7206 25.1543 33.0855 25.0215C34.8843 24.3668 36.3818 24.3301 37.4169 24.4492C37.9357 24.5089 38.3399 24.608 38.6086 24.6895C38.7429 24.7302 38.843 24.7665 38.9064 24.791C38.9381 24.8033 38.9605 24.8126 38.9734 24.8181C38.9799 24.8209 38.9839 24.8227 38.9855 24.8234L38.9841 24.8227C38.9838 24.8226 38.983 24.8222 39.2667 24.2138L38.983 24.8222C38.9839 24.8227 38.9845 24.823 38.9855 24.8234C39.3368 24.9853 39.7537 24.8331 39.9174 24.4821C40.0815 24.1302 39.9292 23.7118 39.5773 23.5477L39.2801 24.185C39.5773 23.5477 39.5776 23.5479 39.5773 23.5477L39.5759 23.5471L39.5743 23.5463L39.5703 23.5445C39.5674 23.5432 39.5638 23.5415 39.5595 23.5396C39.551 23.5358 39.5399 23.531 39.5263 23.5252C39.4991 23.5135 39.4618 23.4981 39.4146 23.4798C39.3204 23.4433 39.1868 23.3953 39.0167 23.3438C38.6766 23.2406 38.1894 23.1226 37.5776 23.0522C36.3516 22.9111 34.6316 22.9623 32.6045 23.7C32.2396 23.8328 32.0515 24.2363 32.1843 24.6012Z" fill="url(#paint10_linear_18479_2764)"/>
<defs>
<linearGradient id="paint0_linear_18479_2764" x1="0" y1="24.0001" x2="48" y2="24.0001" gradientUnits="userSpaceOnUse">
<stop stop-color="#0CBAF1"/>
<stop offset="1" stop-color="#E95CE9"/>
</linearGradient>
<linearGradient id="paint1_linear_18479_2764" x1="0" y1="24.0001" x2="48" y2="24.0001" gradientUnits="userSpaceOnUse">
<stop stop-color="#0CBAF1"/>
<stop offset="1" stop-color="#E95CE9"/>
</linearGradient>
<linearGradient id="paint2_linear_18479_2764" x1="0" y1="24.0001" x2="48" y2="24.0001" gradientUnits="userSpaceOnUse">
<stop stop-color="#0CBAF1"/>
<stop offset="1" stop-color="#E95CE9"/>
</linearGradient>
<linearGradient id="paint3_linear_18479_2764" x1="0" y1="24.0001" x2="48" y2="24.0001" gradientUnits="userSpaceOnUse">
<stop stop-color="#0CBAF1"/>
<stop offset="1" stop-color="#E95CE9"/>
</linearGradient>
<linearGradient id="paint4_linear_18479_2764" x1="0" y1="24.0001" x2="48" y2="24.0001" gradientUnits="userSpaceOnUse">
<stop stop-color="#0CBAF1"/>
<stop offset="1" stop-color="#E95CE9"/>
</linearGradient>
<linearGradient id="paint5_linear_18479_2764" x1="0" y1="24.0001" x2="48" y2="24.0001" gradientUnits="userSpaceOnUse">
<stop stop-color="#0CBAF1"/>
<stop offset="1" stop-color="#E95CE9"/>
</linearGradient>
<linearGradient id="paint6_linear_18479_2764" x1="0" y1="24.0001" x2="48" y2="24.0001" gradientUnits="userSpaceOnUse">
<stop stop-color="#0CBAF1"/>
<stop offset="1" stop-color="#E95CE9"/>
</linearGradient>
<linearGradient id="paint7_linear_18479_2764" x1="0" y1="24.0001" x2="48" y2="24.0001" gradientUnits="userSpaceOnUse">
<stop stop-color="#0CBAF1"/>
<stop offset="1" stop-color="#E95CE9"/>
</linearGradient>
<linearGradient id="paint8_linear_18479_2764" x1="0" y1="24.0001" x2="48" y2="24.0001" gradientUnits="userSpaceOnUse">
<stop stop-color="#0CBAF1"/>
<stop offset="1" stop-color="#E95CE9"/>
</linearGradient>
<linearGradient id="paint9_linear_18479_2764" x1="0" y1="24.0001" x2="48" y2="24.0001" gradientUnits="userSpaceOnUse">
<stop stop-color="#0CBAF1"/>
<stop offset="1" stop-color="#E95CE9"/>
</linearGradient>
<linearGradient id="paint10_linear_18479_2764" x1="0" y1="24.0001" x2="48" y2="24.0001" gradientUnits="userSpaceOnUse">
<stop stop-color="#0CBAF1"/>
<stop offset="1" stop-color="#E95CE9"/>
</linearGradient>
</defs>
</svg>
