<svg width="48" height="48" viewBox="0 0 48 48" fill="none" xmlns="http://www.w3.org/2000/svg">
<path fill-rule="evenodd" clip-rule="evenodd" d="M7.34979 6.64529C7.34979 8.43398 8.80978 9.89429 10.5986 9.89429C10.9869 9.89429 11.3017 9.57949 11.3017 9.19116C11.3017 8.80284 10.9869 8.48804 10.5986 8.48804C9.58656 8.48804 8.75604 7.65747 8.75604 6.64529V3.24901C8.75604 2.23683 9.58656 1.40626 10.5986 1.40626C11.6139 1.40626 12.444 2.23735 12.444 3.24901V4.9471C12.444 5.33543 12.7588 5.65023 13.1471 5.65023C13.5354 5.65023 13.8502 5.33543 13.8502 4.9471V3.24901C13.8502 1.45979 12.3896 8.47131e-06 10.5986 8.47131e-06C8.80978 8.47131e-06 7.34979 1.46031 7.34979 3.24901V6.64529Z" fill="url(#paint0_linear_18479_2659)"/>
<path fill-rule="evenodd" clip-rule="evenodd" d="M16.5045 6.64529C16.5045 8.43402 17.9646 9.89429 19.7534 9.89429C20.1417 9.89429 20.4565 9.57949 20.4565 9.19116C20.4565 8.80284 20.1417 8.48804 19.7534 8.48804C18.7413 8.48804 17.9108 7.65744 17.9108 6.64529V3.24901C17.9108 2.23686 18.7413 1.40626 19.7534 1.40626C20.7687 1.40626 21.5988 2.23735 21.5988 3.24901V4.9471C21.5988 5.33543 21.9136 5.65023 22.3019 5.65023C22.6902 5.65023 23.005 5.33543 23.005 4.9471V3.24901C23.005 1.45979 21.5444 8.47131e-06 19.7534 8.47131e-06C17.9646 8.47131e-06 16.5045 1.46028 16.5045 3.24901V6.64529Z" fill="url(#paint1_linear_18479_2659)"/>
<path fill-rule="evenodd" clip-rule="evenodd" d="M25.6593 6.64529C25.6593 8.43402 27.1194 9.89429 28.9082 9.89429C29.2966 9.89429 29.6114 9.57949 29.6114 9.19116C29.6114 8.80284 29.2966 8.48804 28.9082 8.48804C27.8962 8.48804 27.0656 7.65744 27.0656 6.64529V3.24901C27.0656 2.23686 27.8962 1.40626 28.9082 1.40626C29.9235 1.40626 30.7536 2.23735 30.7536 3.24901V4.9471C30.7536 5.33543 31.0684 5.65023 31.4567 5.65023C31.8451 5.65023 32.1599 5.33543 32.1599 4.9471V3.24901C32.1599 1.45979 30.6993 8.47131e-06 28.9082 8.47131e-06C27.1194 8.47131e-06 25.6593 1.46028 25.6593 3.24901V6.64529Z" fill="url(#paint2_linear_18479_2659)"/>
<path fill-rule="evenodd" clip-rule="evenodd" d="M34.8141 6.64529C34.8141 8.43451 36.2747 9.89429 38.0657 9.89429C38.454 9.89429 38.7688 9.57949 38.7688 9.19116C38.7688 8.80284 38.454 8.48804 38.0657 8.48804C37.0504 8.48804 36.2203 7.65695 36.2203 6.64529V3.24901C36.2203 2.23735 37.0504 1.40626 38.0657 1.40626C39.0778 1.40626 39.9084 2.23686 39.9084 3.24901V4.9471C39.9084 5.33543 40.2232 5.65023 40.6115 5.65023C40.9998 5.65023 41.3146 5.33543 41.3146 4.9471V3.24901C41.3146 1.46028 39.8545 8.47131e-06 38.0657 8.47131e-06C36.2747 8.47131e-06 34.8141 1.45979 34.8141 3.24901V6.64529Z" fill="url(#paint3_linear_18479_2659)"/>
<path fill-rule="evenodd" clip-rule="evenodd" d="M31.9892 38.0954C32.2322 37.7925 32.1836 37.3499 31.8806 37.107L15.0539 23.6122C14.751 23.3693 14.3084 23.4179 14.0655 23.7209C13.8225 24.0238 13.8712 24.4663 14.1741 24.7093L31.0008 38.204C31.3038 38.447 31.7463 38.3983 31.9892 38.0954Z" fill="url(#paint4_linear_18479_2659)"/>
<path fill-rule="evenodd" clip-rule="evenodd" d="M26.6083 25.7325C26.9113 25.9753 27.3538 25.9266 27.5967 25.6236L30.2169 22.3549C30.4598 22.0519 30.4111 21.6094 30.1081 21.3665C29.8051 21.1237 29.3626 21.1724 29.1197 21.4754L26.4995 24.7441C26.2566 25.0471 26.3053 25.4896 26.6083 25.7325Z" fill="url(#paint5_linear_18479_2659)"/>
<path fill-rule="evenodd" clip-rule="evenodd" d="M21.555 26.7019C21.8474 26.9575 22.2916 26.9275 22.5471 26.6351C23.4762 25.5717 24.5944 24.2058 25.4497 22.5675C25.6295 22.2233 25.4961 21.7985 25.1518 21.6188C24.8076 21.4391 24.3829 21.5724 24.2031 21.9167C23.4269 23.4036 22.398 24.6685 21.4881 25.7098C21.2326 26.0022 21.2625 26.4464 21.555 26.7019Z" fill="url(#paint6_linear_18479_2659)"/>
<path fill-rule="evenodd" clip-rule="evenodd" d="M26.7591 30.874C27.072 31.104 27.5121 31.0369 27.7421 30.724C28.5602 29.6113 29.5727 28.3296 30.8541 27.253C31.1514 27.0031 31.1899 26.5596 30.9401 26.2623C30.6903 25.965 30.2467 25.9265 29.9494 26.1763C28.5362 27.3638 27.4439 28.7556 26.6091 29.891C26.3791 30.2039 26.4463 30.644 26.7591 30.874Z" fill="url(#paint7_linear_18479_2659)"/>
<path fill-rule="evenodd" clip-rule="evenodd" d="M30.0132 33.4852C30.3298 33.7101 30.7688 33.6357 30.9936 33.319C32.0976 31.7644 33.696 29.8879 36.5897 29.7503C36.9776 29.7318 37.2771 29.4024 37.2586 29.0145C37.2402 28.6266 36.9107 28.3272 36.5229 28.3456C32.9377 28.5162 30.9964 30.8864 29.8471 32.5048C29.6222 32.8214 29.6966 33.2604 30.0132 33.4852Z" fill="url(#paint8_linear_18479_2659)"/>
<path fill-rule="evenodd" clip-rule="evenodd" d="M19.3892 23.7556C19.7231 23.9538 20.1545 23.8438 20.3527 23.5099C20.7821 22.7866 21.378 21.6135 21.1856 19.9147C21.1419 19.5289 20.7937 19.2515 20.4078 19.2952C20.0219 19.3389 19.7446 19.6871 19.7883 20.073C19.9306 21.3293 19.5061 22.1813 19.1435 22.792C18.9452 23.1259 19.0552 23.5573 19.3892 23.7556Z" fill="url(#paint9_linear_18479_2659)"/>
<path fill-rule="evenodd" clip-rule="evenodd" d="M10.4925 47.9739C10.769 47.9258 11.0682 47.8119 11.371 47.6725C11.3856 47.6657 11.3999 47.6585 11.414 47.6509L30.4836 37.2362C30.6899 37.1235 30.8263 36.9151 30.847 36.6809C30.8677 36.4468 30.7699 36.2177 30.5865 36.0706L16.3482 24.6488C16.1648 24.5017 15.92 24.4559 15.6959 24.5269C15.4717 24.5979 15.2979 24.7763 15.2327 25.0021L9.20822 45.8607C9.2038 45.8759 9.19991 45.8914 9.19654 45.9069C9.12294 46.2468 9.0766 46.5718 9.09151 46.8571C9.1059 47.1323 9.18603 47.5121 9.51462 47.7714C9.84142 48.0293 10.2271 48.0201 10.4925 47.9739ZM10.5661 46.2273L16.291 26.4057L28.8839 36.5075L10.7617 46.4048C10.6694 46.4468 10.5875 46.4813 10.5151 46.5089C10.5266 46.4276 10.5433 46.3342 10.5661 46.2273Z" fill="url(#paint10_linear_18479_2659)"/>
<path fill-rule="evenodd" clip-rule="evenodd" d="M22.2367 41.728C22.5397 41.4851 22.5885 41.0426 22.3456 40.7396L14.6233 31.1036C14.3804 30.8006 13.9379 30.7518 13.6349 30.9946C13.3319 31.2375 13.2831 31.68 13.5259 31.983L21.2483 41.619C21.4911 41.922 21.9336 41.9708 22.2367 41.728Z" fill="url(#paint11_linear_18479_2659)"/>
<path fill-rule="evenodd" clip-rule="evenodd" d="M18.0646 44.0053C18.3676 43.7624 18.4163 43.3199 18.1734 43.0169L13.034 36.6071C12.7911 36.3041 12.3485 36.2554 12.0456 36.4983C11.7426 36.7413 11.6939 37.1838 11.9368 37.4867L17.0762 43.8966C17.3191 44.1996 17.7617 44.2483 18.0646 44.0053Z" fill="url(#paint12_linear_18479_2659)"/>
<path fill-rule="evenodd" clip-rule="evenodd" d="M15.115 45.6157C15.4179 45.3728 15.4666 44.9303 15.2236 44.6273L11.9099 40.495C11.6669 40.192 11.2244 40.1434 10.9214 40.3863C10.6185 40.6293 10.5699 41.0718 10.8128 41.3748L14.1266 45.5071C14.3695 45.81 14.812 45.8587 15.115 45.6157Z" fill="url(#paint13_linear_18479_2659)"/>
<path fill-rule="evenodd" clip-rule="evenodd" d="M25.1864 40.1176C25.4894 39.8748 25.5383 39.4323 25.2955 39.1293L21.2668 34.1013C21.024 33.7982 20.5815 33.7494 20.2785 33.9922C19.9754 34.235 19.9266 34.6775 20.1694 34.9806L24.198 40.0086C24.4408 40.3116 24.8833 40.3605 25.1864 40.1176ZM19.0821 32.5014C19.3852 32.2586 19.4341 31.8161 19.1914 31.513L15.7475 27.2131C15.5047 26.91 15.0622 26.8611 14.7591 27.1038C14.456 27.3466 14.4071 27.7891 14.6499 28.0922L18.0938 32.3921C18.3365 32.6952 18.779 32.7441 19.0821 32.5014Z" fill="url(#paint14_linear_18479_2659)"/>
<path fill-rule="evenodd" clip-rule="evenodd" d="M2.41222 41.0704C2.41222 41.6925 2.91836 42.1987 3.5405 42.1987H11.2018C11.5902 42.1987 11.905 41.8839 11.905 41.4955C11.905 41.1072 11.5902 40.7924 11.2018 40.7924H3.81847V5.65022H44.1815V40.7924H21.2177C20.8294 40.7924 20.5146 41.1072 20.5146 41.4955C20.5146 41.8839 20.8294 42.1987 21.2177 42.1987H44.4595C45.0816 42.1987 45.5877 41.6925 45.5877 41.0704V5.37235C45.5877 4.75022 45.0817 4.24397 44.4595 4.24397H3.5405C2.91826 4.24397 2.41222 4.75023 2.41222 5.37235V41.0704Z" fill="url(#paint15_linear_18479_2659)"/>
<path fill-rule="evenodd" clip-rule="evenodd" d="M2.41228 15.8402C2.41228 16.2285 2.72708 16.5433 3.11541 16.5433H22.2541C22.6424 16.5433 22.9572 16.2285 22.9572 15.8402C22.9572 15.4519 22.6424 15.1371 22.2541 15.1371H3.11541C2.72708 15.1371 2.41228 15.4519 2.41228 15.8402ZM24.7957 15.8402C24.7957 16.2285 25.1105 16.5433 25.4988 16.5433H44.8847C45.273 16.5433 45.5878 16.2285 45.5878 15.8402C45.5878 15.4519 45.273 15.1371 44.8847 15.1371H25.4988C25.1105 15.1371 24.7957 15.4519 24.7957 15.8402ZM2.41228 12.5396C2.41228 12.9279 2.72708 13.2427 3.11541 13.2427H44.8847C45.273 13.2427 45.5878 12.9279 45.5878 12.5396C45.5878 12.1513 45.273 11.8365 44.8847 11.8365H3.11541C2.72708 11.8365 2.41228 12.1513 2.41228 12.5396Z" fill="url(#paint16_linear_18479_2659)"/>
<defs>
<linearGradient id="paint0_linear_18479_2659" x1="0" y1="24" x2="48" y2="24" gradientUnits="userSpaceOnUse">
<stop stop-color="#0CBAF1"/>
<stop offset="1" stop-color="#E95CE9"/>
</linearGradient>
<linearGradient id="paint1_linear_18479_2659" x1="0" y1="24" x2="48" y2="24" gradientUnits="userSpaceOnUse">
<stop stop-color="#0CBAF1"/>
<stop offset="1" stop-color="#E95CE9"/>
</linearGradient>
<linearGradient id="paint2_linear_18479_2659" x1="0" y1="24" x2="48" y2="24" gradientUnits="userSpaceOnUse">
<stop stop-color="#0CBAF1"/>
<stop offset="1" stop-color="#E95CE9"/>
</linearGradient>
<linearGradient id="paint3_linear_18479_2659" x1="0" y1="24" x2="48" y2="24" gradientUnits="userSpaceOnUse">
<stop stop-color="#0CBAF1"/>
<stop offset="1" stop-color="#E95CE9"/>
</linearGradient>
<linearGradient id="paint4_linear_18479_2659" x1="0" y1="24" x2="48" y2="24" gradientUnits="userSpaceOnUse">
<stop stop-color="#0CBAF1"/>
<stop offset="1" stop-color="#E95CE9"/>
</linearGradient>
<linearGradient id="paint5_linear_18479_2659" x1="0" y1="24" x2="48" y2="24" gradientUnits="userSpaceOnUse">
<stop stop-color="#0CBAF1"/>
<stop offset="1" stop-color="#E95CE9"/>
</linearGradient>
<linearGradient id="paint6_linear_18479_2659" x1="0" y1="24" x2="48" y2="24" gradientUnits="userSpaceOnUse">
<stop stop-color="#0CBAF1"/>
<stop offset="1" stop-color="#E95CE9"/>
</linearGradient>
<linearGradient id="paint7_linear_18479_2659" x1="0" y1="24" x2="48" y2="24" gradientUnits="userSpaceOnUse">
<stop stop-color="#0CBAF1"/>
<stop offset="1" stop-color="#E95CE9"/>
</linearGradient>
<linearGradient id="paint8_linear_18479_2659" x1="0" y1="24" x2="48" y2="24" gradientUnits="userSpaceOnUse">
<stop stop-color="#0CBAF1"/>
<stop offset="1" stop-color="#E95CE9"/>
</linearGradient>
<linearGradient id="paint9_linear_18479_2659" x1="0" y1="24" x2="48" y2="24" gradientUnits="userSpaceOnUse">
<stop stop-color="#0CBAF1"/>
<stop offset="1" stop-color="#E95CE9"/>
</linearGradient>
<linearGradient id="paint10_linear_18479_2659" x1="0" y1="24" x2="48" y2="24" gradientUnits="userSpaceOnUse">
<stop stop-color="#0CBAF1"/>
<stop offset="1" stop-color="#E95CE9"/>
</linearGradient>
<linearGradient id="paint11_linear_18479_2659" x1="0" y1="24" x2="48" y2="24" gradientUnits="userSpaceOnUse">
<stop stop-color="#0CBAF1"/>
<stop offset="1" stop-color="#E95CE9"/>
</linearGradient>
<linearGradient id="paint12_linear_18479_2659" x1="0" y1="24" x2="48" y2="24" gradientUnits="userSpaceOnUse">
<stop stop-color="#0CBAF1"/>
<stop offset="1" stop-color="#E95CE9"/>
</linearGradient>
<linearGradient id="paint13_linear_18479_2659" x1="0" y1="24" x2="48" y2="24" gradientUnits="userSpaceOnUse">
<stop stop-color="#0CBAF1"/>
<stop offset="1" stop-color="#E95CE9"/>
</linearGradient>
<linearGradient id="paint14_linear_18479_2659" x1="0" y1="24" x2="48" y2="24" gradientUnits="userSpaceOnUse">
<stop stop-color="#0CBAF1"/>
<stop offset="1" stop-color="#E95CE9"/>
</linearGradient>
<linearGradient id="paint15_linear_18479_2659" x1="0" y1="24" x2="48" y2="24" gradientUnits="userSpaceOnUse">
<stop stop-color="#0CBAF1"/>
<stop offset="1" stop-color="#E95CE9"/>
</linearGradient>
<linearGradient id="paint16_linear_18479_2659" x1="0" y1="24" x2="48" y2="24" gradientUnits="userSpaceOnUse">
<stop stop-color="#0CBAF1"/>
<stop offset="1" stop-color="#E95CE9"/>
</linearGradient>
</defs>
</svg>
