<svg width="48" height="48" viewBox="0 0 48 48" fill="none" xmlns="http://www.w3.org/2000/svg">
<path fill-rule="evenodd" clip-rule="evenodd" d="M18.9621 39.6509C17.9333 39.6509 17.099 38.8179 17.0976 37.7894L17.0976 37.7864L17.088 36.0899C17.088 36.0894 17.088 36.0888 17.088 36.0883C17.0836 33.3199 16.0654 30.623 14.1582 28.5932C11.9135 26.2042 10.5298 22.9998 10.4992 19.4711C10.4354 12.081 16.4179 5.95587 23.8074 5.85298C27.7459 5.79817 31.3028 7.42869 33.8053 10.0713C34.0723 10.3533 34.5173 10.3654 34.7993 10.0984C35.0812 9.8314 35.0933 9.38637 34.8263 9.10441C32.0651 6.18841 28.1357 4.38636 23.7878 4.44687C15.6238 4.56054 9.02248 11.3202 9.09304 19.4833C9.12679 23.3793 10.6561 26.9196 13.1334 29.5561C14.785 31.314 15.6783 33.663 15.6818 36.0919L15.6818 36.0948L15.6913 37.7914C15.6913 37.7919 15.6913 37.7925 15.6913 37.793C15.6947 39.5969 17.1583 41.0572 18.9622 41.0571L29.0618 41.0563C30.8699 41.0561 32.3347 39.5891 32.3322 37.7812L32.3322 37.7783L32.3226 36.0164C32.3226 36.0158 32.3226 36.0152 32.3226 36.0147C32.3195 33.6287 33.1963 31.3195 34.8247 29.6006C37.3545 26.9298 38.9076 23.3215 38.9076 19.3518C38.9076 16.4702 38.089 13.7776 36.6716 11.4961C36.4667 11.1662 36.0332 11.0649 35.7033 11.2699C35.3735 11.4748 35.2722 11.9083 35.4771 12.2381C36.7601 14.3034 37.5013 16.7401 37.5013 19.3518C37.5013 22.9475 36.0962 26.2134 33.8037 28.6335C31.9148 30.6276 30.9123 33.2898 30.9163 36.0184L30.9163 36.0212L30.926 37.7831C30.926 37.7835 30.926 37.7839 30.926 37.7843C30.9268 38.8143 30.092 39.6499 29.0617 39.65L18.9621 39.6509Z" fill="url(#paint0_linear_18478_2320)"/>
<path fill-rule="evenodd" clip-rule="evenodd" d="M21.4219 48C19.6842 48.0002 18.2775 46.5876 18.285 44.8499ZM21.4219 48L26.5664 47.9994C26.5664 47.9994 26.5663 47.9994 26.5664 47.9994C28.2931 47.9993 29.6951 46.6035 29.7026 44.8767L29.7223 40.3571C29.7231 40.17 29.6494 39.9904 29.5174 39.8579C29.3855 39.7253 29.2061 39.6508 29.0191 39.6509L19.0077 39.6519C18.6206 39.6519 18.3064 39.9649 18.3047 40.3519L18.285 44.8499M19.6912 44.856C19.6912 44.856 19.6912 44.856 19.6912 44.856L19.7079 41.0581L28.313 41.0572L28.2964 44.8706C28.2922 45.823 27.5189 46.5931 26.5663 46.5931L21.4217 46.5937C20.4632 46.5938 19.6871 45.8146 19.6912 44.856Z" fill="url(#paint1_linear_18478_2320)"/>
<path fill-rule="evenodd" clip-rule="evenodd" d="M20.1928 23.7731C20.2152 24.1444 20.5228 24.434 20.8947 24.434H27.0981C27.4485 24.434 27.7455 24.176 27.7944 23.829C27.8678 23.3081 28.0249 22.5988 28.3806 21.8197C28.7537 21.0021 29.2164 20.3902 29.5945 19.97C29.8942 19.6367 29.9574 19.1487 29.7426 18.7485M21.106 21.4823C21.3302 22.0455 21.4562 22.573 21.526 23.0278ZM21.526 23.0278H26.509C26.6206 22.5052 26.802 21.8913 27.1013 21.2357C27.4964 20.3701 27.9752 19.6982 28.3926 19.2082C27.8413 18.1939 27.2067 17.1229 26.4763 16.0172C25.6459 14.7601 24.8059 13.6314 23.9918 12.6265C23.1593 13.6386 22.2966 14.7888 21.4474 16.0832C20.7444 17.1548 20.1378 18.1921 19.6142 19.1727C20.0958 19.674 20.6892 20.4349 21.106 21.4823M19.4983 19.3915C19.4982 19.3915 19.4983 19.3915 19.4983 19.3915ZM28.5035 19.4134C28.5034 19.4134 28.5035 19.4135 28.5035 19.4134ZM20.1928 23.7731C20.1655 23.32 20.0748 22.694 19.7995 22.0023ZM19.7995 22.0023C19.4226 21.0553 18.8638 20.3976 18.4534 19.9996ZM18.4534 19.9996C18.1087 19.6652 18.0365 19.1496 18.2537 18.7369ZM29.7426 18.7485C29.1472 17.639 28.4548 16.461 27.6496 15.2421C26.7662 13.9047 25.8724 12.7082 25.0081 11.6472M18.2537 18.7369C18.8225 17.6554 19.4895 16.504 20.2716 15.3118ZM20.2716 15.3118C21.1772 13.9314 22.0975 12.7097 22.9831 11.6394ZM22.9831 11.6394C23.5096 11.0034 24.4863 11.0067 25.0081 11.6472Z" fill="url(#paint2_linear_18478_2320)"/>
<path fill-rule="evenodd" clip-rule="evenodd" d="M20.1952 26.5716C20.1952 26.9599 20.51 27.2747 20.8983 27.2747H27.1017C27.49 27.2747 27.8048 26.9599 27.8048 26.5716V23.7308C27.8048 23.3425 27.49 23.0277 27.1017 23.0277H20.8983C20.51 23.0277 20.1952 23.3425 20.1952 23.7308V26.5716ZM21.6014 25.8684V24.434H26.3986V25.8684H21.6014Z" fill="url(#paint3_linear_18478_2320)"/>
<path fill-rule="evenodd" clip-rule="evenodd" d="M27.8653 41.0561C28.2536 41.0561 28.5684 40.7413 28.5684 40.353V27.3246C28.5684 26.5189 27.9145 25.8685 27.1113 25.8685H20.8887C20.0855 25.8685 19.4316 26.5189 19.4316 27.3246V37.3158C19.4316 37.7041 19.7464 38.0189 20.1347 38.0189C20.5231 38.0189 20.8379 37.7041 20.8379 37.3158V27.3246C20.8379 27.2981 20.8597 27.2748 20.8887 27.2748H27.1113C27.1403 27.2748 27.1621 27.2981 27.1621 27.3246V40.353C27.1621 40.7413 27.4769 41.0561 27.8653 41.0561Z" fill="url(#paint4_linear_18478_2320)"/>
<path fill-rule="evenodd" clip-rule="evenodd" d="M24 20.2478C24.3883 20.2478 24.7031 19.933 24.7031 19.5447V11.8678C24.7031 11.4795 24.3883 11.1647 24 11.1647C23.6117 11.1647 23.2969 11.4795 23.2969 11.8678V19.5447C23.2969 19.933 23.6117 20.2478 24 20.2478Z" fill="url(#paint5_linear_18478_2320)"/>
<path fill-rule="evenodd" clip-rule="evenodd" d="M19.4321 29.8282C19.4321 30.2165 19.7469 30.5313 20.1352 30.5313H27.8648C28.2531 30.5313 28.5679 30.2165 28.5679 29.8282C28.5679 29.4398 28.2531 29.125 27.8648 29.125H20.1352C19.7469 29.125 19.4321 29.4398 19.4321 29.8282Z" fill="url(#paint6_linear_18478_2320)"/>
<path fill-rule="evenodd" clip-rule="evenodd" d="M23.9936 2.70657C24.3819 2.70657 24.6967 2.39177 24.6967 2.00344V0.703132C24.6967 0.314807 24.3819 6.87689e-06 23.9936 6.87689e-06C23.6053 6.87689e-06 23.2905 0.314807 23.2905 0.703132V2.00344C23.2905 2.39177 23.6053 2.70657 23.9936 2.70657Z" fill="url(#paint7_linear_18478_2320)"/>
<path fill-rule="evenodd" clip-rule="evenodd" d="M40.5065 19.7654C40.5065 20.1537 40.8213 20.4685 41.2096 20.4685H42.4694C42.8578 20.4685 43.1726 20.1537 43.1726 19.7654C43.1726 19.3771 42.8578 19.0623 42.4694 19.0623H41.2096C40.8213 19.0623 40.5065 19.3771 40.5065 19.7654Z" fill="url(#paint8_linear_18478_2320)"/>
<path fill-rule="evenodd" clip-rule="evenodd" d="M4.82739 19.7654C4.82739 20.1537 5.14219 20.4685 5.53052 20.4685H6.79033C7.17866 20.4685 7.49346 20.1537 7.49346 19.7654C7.49346 19.3771 7.17866 19.0623 6.79033 19.0623H5.53052C5.14219 19.0623 4.82739 19.3771 4.82739 19.7654Z" fill="url(#paint9_linear_18478_2320)"/>
<path fill-rule="evenodd" clip-rule="evenodd" d="M35.6797 7.71072C35.9586 7.98094 36.4038 7.9739 36.674 7.69502L37.5649 6.77552C37.8351 6.49663 37.8281 6.05149 37.5492 5.78127C37.2703 5.51105 36.8252 5.51808 36.5549 5.79697L35.664 6.71647C35.3938 6.99536 35.4008 7.4405 35.6797 7.71072Z" fill="url(#paint10_linear_18478_2320)"/>
<path fill-rule="evenodd" clip-rule="evenodd" d="M10.4508 33.7494C10.7297 34.0196 11.1748 34.0126 11.4451 33.7337L12.336 32.8142C12.6062 32.5353 12.5992 32.0902 12.3203 31.82C12.0414 31.5498 11.5962 31.5568 11.326 31.8357L10.4351 32.7552C10.1649 33.0341 10.1719 33.4792 10.4508 33.7494Z" fill="url(#paint11_linear_18478_2320)"/>
<path fill-rule="evenodd" clip-rule="evenodd" d="M37.5492 33.7495C37.8281 33.4792 37.8351 33.0341 37.5649 32.7552L36.674 31.8357C36.4038 31.5568 35.9586 31.5498 35.6797 31.82C35.4008 32.0902 35.3938 32.5354 35.664 32.8142L36.5549 33.7337C36.8252 34.0126 37.2703 34.0197 37.5492 33.7495Z" fill="url(#paint12_linear_18478_2320)"/>
<path fill-rule="evenodd" clip-rule="evenodd" d="M12.3203 7.71076C12.5992 7.44054 12.6062 6.9954 12.336 6.71651L11.4451 5.79701C11.1748 5.51812 10.7297 5.51109 10.4508 5.78131C10.1719 6.05153 10.1649 6.49666 10.4351 6.77555L11.326 7.69505C11.5962 7.97394 12.0414 7.98097 12.3203 7.71076Z" fill="url(#paint13_linear_18478_2320)"/>
<path fill-rule="evenodd" clip-rule="evenodd" d="M18.285 43.5915C18.285 43.9798 18.5998 44.2946 18.9881 44.2946H26.2886C26.6769 44.2946 26.9917 43.9798 26.9917 43.5915C26.9917 43.2031 26.6769 42.8883 26.2886 42.8883H18.9881C18.5998 42.8883 18.285 43.2031 18.285 43.5915Z" fill="url(#paint14_linear_18478_2320)"/>
<defs>
<linearGradient id="paint0_linear_18478_2320" x1="0" y1="24" x2="48" y2="24" gradientUnits="userSpaceOnUse">
<stop stop-color="#0CBAF1"/>
<stop offset="1" stop-color="#E95CE9"/>
</linearGradient>
<linearGradient id="paint1_linear_18478_2320" x1="0" y1="24" x2="48" y2="24" gradientUnits="userSpaceOnUse">
<stop stop-color="#0CBAF1"/>
<stop offset="1" stop-color="#E95CE9"/>
</linearGradient>
<linearGradient id="paint2_linear_18478_2320" x1="0" y1="24" x2="48" y2="24" gradientUnits="userSpaceOnUse">
<stop stop-color="#0CBAF1"/>
<stop offset="1" stop-color="#E95CE9"/>
</linearGradient>
<linearGradient id="paint3_linear_18478_2320" x1="0" y1="24" x2="48" y2="24" gradientUnits="userSpaceOnUse">
<stop stop-color="#0CBAF1"/>
<stop offset="1" stop-color="#E95CE9"/>
</linearGradient>
<linearGradient id="paint4_linear_18478_2320" x1="0" y1="24" x2="48" y2="24" gradientUnits="userSpaceOnUse">
<stop stop-color="#0CBAF1"/>
<stop offset="1" stop-color="#E95CE9"/>
</linearGradient>
<linearGradient id="paint5_linear_18478_2320" x1="0" y1="24" x2="48" y2="24" gradientUnits="userSpaceOnUse">
<stop stop-color="#0CBAF1"/>
<stop offset="1" stop-color="#E95CE9"/>
</linearGradient>
<linearGradient id="paint6_linear_18478_2320" x1="0" y1="24" x2="48" y2="24" gradientUnits="userSpaceOnUse">
<stop stop-color="#0CBAF1"/>
<stop offset="1" stop-color="#E95CE9"/>
</linearGradient>
<linearGradient id="paint7_linear_18478_2320" x1="0" y1="24" x2="48" y2="24" gradientUnits="userSpaceOnUse">
<stop stop-color="#0CBAF1"/>
<stop offset="1" stop-color="#E95CE9"/>
</linearGradient>
<linearGradient id="paint8_linear_18478_2320" x1="0" y1="24" x2="48" y2="24" gradientUnits="userSpaceOnUse">
<stop stop-color="#0CBAF1"/>
<stop offset="1" stop-color="#E95CE9"/>
</linearGradient>
<linearGradient id="paint9_linear_18478_2320" x1="0" y1="24" x2="48" y2="24" gradientUnits="userSpaceOnUse">
<stop stop-color="#0CBAF1"/>
<stop offset="1" stop-color="#E95CE9"/>
</linearGradient>
<linearGradient id="paint10_linear_18478_2320" x1="0" y1="24" x2="48" y2="24" gradientUnits="userSpaceOnUse">
<stop stop-color="#0CBAF1"/>
<stop offset="1" stop-color="#E95CE9"/>
</linearGradient>
<linearGradient id="paint11_linear_18478_2320" x1="0" y1="24" x2="48" y2="24" gradientUnits="userSpaceOnUse">
<stop stop-color="#0CBAF1"/>
<stop offset="1" stop-color="#E95CE9"/>
</linearGradient>
<linearGradient id="paint12_linear_18478_2320" x1="0" y1="24" x2="48" y2="24" gradientUnits="userSpaceOnUse">
<stop stop-color="#0CBAF1"/>
<stop offset="1" stop-color="#E95CE9"/>
</linearGradient>
<linearGradient id="paint13_linear_18478_2320" x1="0" y1="24" x2="48" y2="24" gradientUnits="userSpaceOnUse">
<stop stop-color="#0CBAF1"/>
<stop offset="1" stop-color="#E95CE9"/>
</linearGradient>
<linearGradient id="paint14_linear_18478_2320" x1="0" y1="24" x2="48" y2="24" gradientUnits="userSpaceOnUse">
<stop stop-color="#0CBAF1"/>
<stop offset="1" stop-color="#E95CE9"/>
</linearGradient>
</defs>
</svg>
