<svg width="48" height="48" viewBox="0 0 48 48" fill="none" xmlns="http://www.w3.org/2000/svg">
<path fill-rule="evenodd" clip-rule="evenodd" d="M26.0658 27.9994C24.6886 28.0022 23.3114 28.0022 21.9343 27.9994C21.5459 27.9986 21.2305 28.3128 21.2297 28.7011C21.2289 29.0894 21.5431 29.4048 21.9314 29.4056C23.3105 29.4085 24.6896 29.4085 26.0686 29.4056C26.457 29.4048 26.7711 29.0894 26.7703 28.7011C26.7695 28.3128 26.4541 27.9986 26.0658 27.9994Z" fill="url(#paint0_linear_18478_2506)"/>
<path fill-rule="evenodd" clip-rule="evenodd" d="M33.9835 37.2887C34.1868 36.9578 34.0833 36.5248 33.7524 36.3215C31.8731 35.1669 30.4572 33.2743 29.9751 30.945C29.8964 30.5647 29.5243 30.3203 29.1441 30.399C28.7638 30.4777 28.5193 30.8497 28.598 31.23C29.1622 33.9557 30.8213 36.1712 33.0163 37.5197C33.3472 37.723 33.7802 37.6196 33.9835 37.2887Z" fill="url(#paint1_linear_18478_2506)"/>
<path fill-rule="evenodd" clip-rule="evenodd" d="M7.61541 38.6862C12.9525 39.9749 18.2939 36.5882 19.4029 31.23C19.4816 30.8498 19.2372 30.4777 18.8569 30.399C18.4766 30.3203 18.1046 30.5647 18.0258 30.945C17.0781 35.5239 12.5108 38.4221 7.94449 37.319L7.94224 37.3185C7.88462 37.3048 7.82773 37.291 7.76941 37.2769C3.48209 36.242 0.743694 32.0363 1.54546 27.7026C2.22368 24.0371 3.14471 20.3303 4.23924 16.5877C5.24112 13.1642 8.33101 10.7762 11.8984 10.6543C19.9663 10.3764 28.0335 10.3764 36.1014 10.6543C39.6688 10.7762 42.7589 13.1642 43.7608 16.5877C44.8553 20.3303 45.7763 24.0371 46.4545 27.7026C47.2563 32.0363 44.5183 36.242 40.231 37.2768C40.2028 37.2836 40.1739 37.2906 40.1447 37.2976L40.1431 37.298C40.1143 37.3049 40.0848 37.3119 40.0555 37.319M7.61541 38.6862C7.55562 38.672 7.49696 38.6578 7.43969 38.644C7.43981 38.644 7.43957 38.6439 7.43969 38.644C2.42909 37.4343 -0.775534 32.518 0.162677 27.4468C0.851331 23.7248 1.78467 19.9709 2.88952 16.193C4.06266 12.1841 7.67955 9.39143 11.8502 9.24886C19.9504 8.96987 28.0496 8.96987 36.1498 9.24886C40.3205 9.39143 43.9373 12.184 45.1104 16.1928C46.2153 19.9708 47.1487 23.7248 47.8373 27.4468C48.7755 32.518 45.5719 37.4341 40.5613 38.6437C40.5315 38.6509 40.5016 38.6581 40.4724 38.6651C40.443 38.6722 40.4143 38.6791 40.386 38.6859C38.8187 39.0646 37.2501 39.0396 35.7878 38.6796C35.4108 38.5868 35.1804 38.2059 35.2732 37.8288C35.366 37.4517 35.747 37.2213 36.124 37.3141C37.3729 37.6216 38.7128 37.6434 40.0555 37.319" fill="url(#paint2_linear_18478_2506)"/>
<path fill-rule="evenodd" clip-rule="evenodd" d="M18.8139 30.3859C17.4181 30.3859 16.2865 29.2544 16.2865 27.8586C16.2865 26.4628 17.4181 25.3313 18.8139 25.3313C20.2097 25.3313 21.3413 26.4628 21.3413 27.8586C21.3413 29.2544 20.2097 30.3859 18.8139 30.3859ZM14.8803 27.8586C14.8803 30.0311 16.6415 31.7922 18.8139 31.7922C20.9863 31.7922 22.7475 30.0311 22.7475 27.8586C22.7475 25.6861 20.9863 23.9251 18.8139 23.9251C16.6415 23.9251 14.8803 25.6861 14.8803 27.8586Z" fill="url(#paint3_linear_18478_2506)"/>
<path fill-rule="evenodd" clip-rule="evenodd" d="M29.1861 30.3859C27.7903 30.3859 26.6587 29.2544 26.6587 27.8586C26.6587 26.4628 27.7903 25.3313 29.1861 25.3313C30.5819 25.3313 31.7135 26.4628 31.7135 27.8586C31.7135 29.2544 30.5819 30.3859 29.1861 30.3859ZM25.2525 27.8586C25.2525 30.0311 27.0137 31.7922 29.1861 31.7922C31.3585 31.7922 33.1197 30.0311 33.1197 27.8586C33.1197 25.6861 31.3585 23.9251 29.1861 23.9251C27.0137 23.9251 25.2525 25.6861 25.2525 27.8586Z" fill="url(#paint4_linear_18478_2506)"/>
<path fill-rule="evenodd" clip-rule="evenodd" d="M10.262 26.7671H10.3037C11.8317 26.7664 13.0732 25.5467 13.1145 24.0244C13.1157 23.9797 13.1169 23.935 13.118 23.8903C13.1627 23.8891 13.2074 23.888 13.252 23.8868C14.7744 23.8455 15.9942 22.604 15.9949 21.0759V21.0342C15.9942 19.5061 14.7745 18.2647 13.2521 18.2234C13.2075 18.2222 13.1627 18.221 13.118 18.2198C13.1169 18.1751 13.1157 18.1304 13.1145 18.0857C13.0732 16.5635 11.8317 15.3437 10.3037 15.3429H10.262C8.734 15.3437 7.4924 16.5633 7.45111 18.0856C7.4499 18.1303 7.44872 18.1751 7.44757 18.2198C7.40293 18.221 7.35829 18.2222 7.31366 18.2234C5.79131 18.2647 4.57151 19.5061 4.57076 21.0341V21.076C4.57151 22.604 5.79122 23.8455 7.31357 23.8868C7.35821 23.888 7.40293 23.8891 7.44757 23.8903C7.44872 23.935 7.4499 23.9796 7.45111 24.0243C7.49239 25.5466 8.734 26.7664 10.262 26.7671ZM10.303 25.3609H10.2627C9.50146 25.3603 8.87767 24.7523 8.85685 23.9864M10.303 25.3609C11.0642 25.3603 11.6879 24.7524 11.7088 23.9864ZM8.85685 23.9864C8.84967 23.7205 8.84343 23.4546 8.83822 23.1889C8.83081 22.8115 8.52669 22.5073 8.14927 22.4998C7.88338 22.4944 7.61749 22.4882 7.35169 22.481M11.7088 23.9864C11.7159 23.7205 11.7222 23.4545 11.7275 23.1887ZM13.214 22.481C12.9481 22.4882 12.6822 22.4944 12.4164 22.4998C12.0391 22.5073 11.735 22.8114 11.7275 23.1887M13.214 22.481C13.9801 22.4602 14.5881 21.8368 14.5886 21.0756C14.5886 21.0757 14.5886 21.0755 14.5886 21.0756V21.0348M5.97701 21.0753C5.97701 21.0753 5.97701 21.0753 5.97701 21.0753V21.0348C5.97757 20.2737 6.58549 19.6499 7.3516 19.6291C7.61743 19.6219 7.88326 19.6157 8.14902 19.6105C8.52654 19.6031 8.83081 19.2988 8.83822 18.9213C8.84343 18.6555 8.84967 18.3897 8.85684 18.1238M5.97701 21.0753C5.97701 21.0753 5.97701 21.0753 5.97701 21.0753ZM5.97701 21.0753C5.97757 21.8365 6.58558 22.4602 7.35169 22.481ZM14.5886 21.0348C14.5881 20.2737 13.9802 19.6499 13.2141 19.6291ZM13.2141 19.6291C12.9482 19.6219 12.6823 19.6157 12.4167 19.6105C12.0393 19.6031 11.735 19.2989 11.7275 18.9215C11.7222 18.6555 11.7159 18.3897 11.7088 18.1238M8.85684 18.1238C8.87767 17.3577 9.5013 16.7495 10.2627 16.7492H10.303C11.0644 16.7495 11.6879 17.3577 11.7088 18.1238" fill="url(#paint5_linear_18478_2506)"/>
<path fill-rule="evenodd" clip-rule="evenodd" d="M40.4572 19.8589C39.9467 20.3694 39.1191 20.3694 38.6086 19.8589C38.0981 19.3484 38.0981 18.5208 38.6086 18.0103C39.1191 17.4998 39.9467 17.4998 40.4572 18.0103C40.9677 18.5208 40.9677 19.3484 40.4572 19.8589ZM37.6142 20.8533C38.6739 21.9129 40.3919 21.9129 41.4516 20.8533C42.5112 19.7936 42.5112 18.0756 41.4516 17.0159C40.3919 15.9563 38.6739 15.9563 37.6142 17.0159C36.5546 18.0756 36.5546 19.7936 37.6142 20.8533Z" fill="url(#paint6_linear_18478_2506)"/>
<path fill-rule="evenodd" clip-rule="evenodd" d="M36.2164 24.0997C35.7059 24.6102 34.8782 24.6102 34.3678 24.0997C33.8573 23.5893 33.8573 22.7616 34.3678 22.2511C34.8782 21.7407 35.7059 21.7407 36.2164 22.2511C36.7268 22.7616 36.7268 23.5893 36.2164 24.0997ZM33.3734 25.0941C34.4331 26.1538 36.1511 26.1538 37.2107 25.0941C38.2704 24.0345 38.2704 22.3164 37.2107 21.2568C36.1511 20.1971 34.4331 20.1971 33.3734 21.2568C32.3138 22.3164 32.3138 24.0345 33.3734 25.0941Z" fill="url(#paint7_linear_18478_2506)"/>
<path fill-rule="evenodd" clip-rule="evenodd" d="M20.0294 19.758C20.0294 20.8627 20.9249 21.7581 22.0295 21.7581H26.1901C27.2947 21.7581 28.1902 20.8627 28.1902 19.758C28.1902 18.6533 27.2948 17.7577 26.1901 17.7577H22.0295C20.9248 17.7577 20.0294 18.6533 20.0294 19.758ZM22.0295 20.3519C21.7015 20.3519 21.4356 20.086 21.4356 19.758C21.4356 19.4298 21.7016 19.164 22.0295 19.164H26.1901C26.5181 19.164 26.784 19.4298 26.784 19.758C26.784 20.086 26.5181 20.3519 26.1901 20.3519H22.0295Z" fill="url(#paint8_linear_18478_2506)"/>
<path fill-rule="evenodd" clip-rule="evenodd" d="M16.4456 14.4343C16.6281 14.0916 16.4983 13.6657 16.1555 13.4832C15.4411 13.1026 14.9353 12.3785 14.8575 11.5214C14.8094 10.9721 14.7824 10.4246 14.7797 9.87962C14.7777 9.4913 14.4614 9.17807 14.0731 9.18C13.6847 9.18193 13.3715 9.49828 13.3734 9.88661C13.3763 10.4738 13.4055 11.0603 13.4567 11.6451L13.4569 11.647C13.5782 12.9889 14.3717 14.1263 15.4944 14.7243C15.8372 14.9069 16.263 14.777 16.4456 14.4343Z" fill="url(#paint9_linear_18478_2506)"/>
<path fill-rule="evenodd" clip-rule="evenodd" d="M30.7891 13.7668C26.7301 13.9255 22.6704 13.9423 18.6107 13.8153C18.2226 13.8032 17.8981 14.108 17.8859 14.4961C17.8738 14.8843 18.1786 15.2088 18.5667 15.2209C22.6595 15.3489 26.7522 15.332 30.8438 15.172M30.7891 13.7668C32.0256 13.7187 33.031 12.7591 33.1424 11.5215ZM33.1424 11.5215C33.1905 10.9722 33.2176 10.4247 33.2203 9.87962C33.2222 9.4913 33.5386 9.17807 33.9269 9.18C34.3152 9.18193 34.6285 9.49829 34.6265 9.88661C34.6236 10.4738 34.5945 11.0603 34.5432 11.6451L34.5431 11.6466C34.3692 13.583 32.7926 15.0962 30.8438 15.172" fill="url(#paint10_linear_18478_2506)"/>
<defs>
<linearGradient id="paint0_linear_18478_2506" x1="-0.000244141" y1="24" x2="48.0003" y2="24" gradientUnits="userSpaceOnUse">
<stop stop-color="#0CBAF1"/>
<stop offset="1" stop-color="#E95CE9"/>
</linearGradient>
<linearGradient id="paint1_linear_18478_2506" x1="-0.000244141" y1="24" x2="48.0003" y2="24" gradientUnits="userSpaceOnUse">
<stop stop-color="#0CBAF1"/>
<stop offset="1" stop-color="#E95CE9"/>
</linearGradient>
<linearGradient id="paint2_linear_18478_2506" x1="-0.000244141" y1="24" x2="48.0003" y2="24" gradientUnits="userSpaceOnUse">
<stop stop-color="#0CBAF1"/>
<stop offset="1" stop-color="#E95CE9"/>
</linearGradient>
<linearGradient id="paint3_linear_18478_2506" x1="-0.000244141" y1="24" x2="48.0003" y2="24" gradientUnits="userSpaceOnUse">
<stop stop-color="#0CBAF1"/>
<stop offset="1" stop-color="#E95CE9"/>
</linearGradient>
<linearGradient id="paint4_linear_18478_2506" x1="-0.000244141" y1="24" x2="48.0003" y2="24" gradientUnits="userSpaceOnUse">
<stop stop-color="#0CBAF1"/>
<stop offset="1" stop-color="#E95CE9"/>
</linearGradient>
<linearGradient id="paint5_linear_18478_2506" x1="-0.000244141" y1="24" x2="48.0003" y2="24" gradientUnits="userSpaceOnUse">
<stop stop-color="#0CBAF1"/>
<stop offset="1" stop-color="#E95CE9"/>
</linearGradient>
<linearGradient id="paint6_linear_18478_2506" x1="-0.000244141" y1="24" x2="48.0003" y2="24" gradientUnits="userSpaceOnUse">
<stop stop-color="#0CBAF1"/>
<stop offset="1" stop-color="#E95CE9"/>
</linearGradient>
<linearGradient id="paint7_linear_18478_2506" x1="-0.000244141" y1="24" x2="48.0003" y2="24" gradientUnits="userSpaceOnUse">
<stop stop-color="#0CBAF1"/>
<stop offset="1" stop-color="#E95CE9"/>
</linearGradient>
<linearGradient id="paint8_linear_18478_2506" x1="-0.000244141" y1="24" x2="48.0003" y2="24" gradientUnits="userSpaceOnUse">
<stop stop-color="#0CBAF1"/>
<stop offset="1" stop-color="#E95CE9"/>
</linearGradient>
<linearGradient id="paint9_linear_18478_2506" x1="-0.000244141" y1="24" x2="48.0003" y2="24" gradientUnits="userSpaceOnUse">
<stop stop-color="#0CBAF1"/>
<stop offset="1" stop-color="#E95CE9"/>
</linearGradient>
<linearGradient id="paint10_linear_18478_2506" x1="-0.000244141" y1="24" x2="48.0003" y2="24" gradientUnits="userSpaceOnUse">
<stop stop-color="#0CBAF1"/>
<stop offset="1" stop-color="#E95CE9"/>
</linearGradient>
</defs>
</svg>
